G04 #@! TF.FileFunction,Copper,L2,Bot,Signal*
%FSLAX46Y46*%
G04 Gerber Fmt 4.6, Leading zero omitted, Abs format (unit mm)*
G04 Created by KiCad (PCBNEW (2015-01-16 BZR 5376)-product) date 7/24/2015 3:20:05 PM*
%MOMM*%
G01*
G04 APERTURE LIST*
%ADD10C,0.100000*%
%ADD11C,0.190500*%
%ADD12C,0.150000*%
%ADD13C,1.000760*%
%ADD14R,1.600000X2.000000*%
%ADD15C,1.948180*%
%ADD16R,0.750000X1.200000*%
%ADD17R,3.500120X3.500120*%
%ADD18R,1.727200X2.032000*%
%ADD19O,1.727200X2.032000*%
%ADD20C,1.506220*%
%ADD21R,1.727200X1.727200*%
%ADD22O,1.727200X1.727200*%
%ADD23C,1.600000*%
%ADD24C,1.800000*%
%ADD25O,1.200000X1.250000*%
%ADD26C,1.000000*%
%ADD27C,0.304800*%
%ADD28C,0.381000*%
%ADD29C,0.508000*%
%ADD30C,0.762000*%
%ADD31C,0.635000*%
%ADD32C,0.889000*%
%ADD33C,1.270000*%
%ADD34C,0.254000*%
G04 APERTURE END LIST*
D10*
D11*
X189774285Y-42853429D02*
X189665428Y-42889714D01*
X189483999Y-42889714D01*
X189411428Y-42853429D01*
X189375142Y-42817143D01*
X189338857Y-42744571D01*
X189338857Y-42672000D01*
X189375142Y-42599429D01*
X189411428Y-42563143D01*
X189483999Y-42526857D01*
X189629142Y-42490571D01*
X189701714Y-42454286D01*
X189737999Y-42418000D01*
X189774285Y-42345429D01*
X189774285Y-42272857D01*
X189737999Y-42200286D01*
X189701714Y-42164000D01*
X189629142Y-42127714D01*
X189447714Y-42127714D01*
X189338857Y-42164000D01*
X188867143Y-42127714D02*
X188722000Y-42127714D01*
X188649428Y-42164000D01*
X188576857Y-42236571D01*
X188540571Y-42381714D01*
X188540571Y-42635714D01*
X188576857Y-42780857D01*
X188649428Y-42853429D01*
X188722000Y-42889714D01*
X188867143Y-42889714D01*
X188939714Y-42853429D01*
X189012285Y-42780857D01*
X189048571Y-42635714D01*
X189048571Y-42381714D01*
X189012285Y-42236571D01*
X188939714Y-42164000D01*
X188867143Y-42127714D01*
X187851142Y-42889714D02*
X188213999Y-42889714D01*
X188213999Y-42127714D01*
X187597142Y-42889714D02*
X187597142Y-42127714D01*
X187415714Y-42127714D01*
X187306857Y-42164000D01*
X187234285Y-42236571D01*
X187198000Y-42309143D01*
X187161714Y-42454286D01*
X187161714Y-42563143D01*
X187198000Y-42708286D01*
X187234285Y-42780857D01*
X187306857Y-42853429D01*
X187415714Y-42889714D01*
X187597142Y-42889714D01*
D12*
X64000000Y-92000000D02*
X191000000Y-92000000D01*
X59000000Y-46000000D02*
X59000000Y-87000000D01*
X64000000Y-41000000D02*
X191000000Y-41000000D01*
X59000000Y-87000000D02*
G75*
G03X64000000Y-92000000I5000000J0D01*
G01*
X64000000Y-41000000D02*
G75*
G03X59000000Y-46000000I0J-5000000D01*
G01*
X191000000Y-41000000D02*
X191000000Y-92000000D01*
D13*
X121653300Y-55880000D03*
X120154700Y-55880000D03*
D14*
X120904000Y-52630000D03*
D15*
X151003000Y-55819040D03*
X151003000Y-75819000D03*
D16*
X123190000Y-53274000D03*
X123190000Y-51374000D03*
X118618000Y-53274000D03*
X118618000Y-51374000D03*
D17*
X177187860Y-53594000D03*
X183187340Y-53594000D03*
X180187600Y-48895000D03*
D18*
X165989000Y-86360000D03*
D19*
X163449000Y-86360000D03*
X160909000Y-86360000D03*
X158369000Y-86360000D03*
X155829000Y-86360000D03*
X153289000Y-86360000D03*
X150749000Y-86360000D03*
X148209000Y-86360000D03*
X145669000Y-86360000D03*
X143129000Y-86360000D03*
X140589000Y-86360000D03*
X138049000Y-86360000D03*
X135509000Y-86360000D03*
X132969000Y-86360000D03*
X130429000Y-86360000D03*
X127889000Y-86360000D03*
X125349000Y-86360000D03*
X122809000Y-86360000D03*
X120269000Y-86360000D03*
X117729000Y-86360000D03*
X115189000Y-86360000D03*
X112649000Y-86360000D03*
X110109000Y-86360000D03*
X107569000Y-86360000D03*
X105029000Y-86360000D03*
X102489000Y-86360000D03*
X99949000Y-86360000D03*
X97409000Y-86360000D03*
X94869000Y-86360000D03*
X92329000Y-86360000D03*
X89789000Y-86360000D03*
X87249000Y-86360000D03*
X84709000Y-86360000D03*
X82169000Y-86360000D03*
X79629000Y-86360000D03*
X77089000Y-86360000D03*
X74549000Y-86360000D03*
X72009000Y-86360000D03*
X69469000Y-86360000D03*
X66929000Y-86360000D03*
D20*
X70520000Y-77430000D03*
X67980000Y-77430000D03*
X70520000Y-74890000D03*
X67980000Y-74890000D03*
X70520000Y-72350000D03*
X67980000Y-72350000D03*
X70520000Y-69810000D03*
X67980000Y-69810000D03*
X70520000Y-67270000D03*
X67980000Y-67270000D03*
X70520000Y-64730000D03*
X67980000Y-64730000D03*
X70520000Y-62190000D03*
X67980000Y-62190000D03*
X70520000Y-59650000D03*
X67980000Y-59650000D03*
X70520000Y-57110000D03*
X67980000Y-57110000D03*
X70520000Y-54570000D03*
X67980000Y-54570000D03*
D18*
X165989000Y-45720000D03*
D19*
X163449000Y-45720000D03*
X160909000Y-45720000D03*
X158369000Y-45720000D03*
X155829000Y-45720000D03*
X153289000Y-45720000D03*
X150749000Y-45720000D03*
X148209000Y-45720000D03*
X145669000Y-45720000D03*
X143129000Y-45720000D03*
X140589000Y-45720000D03*
X138049000Y-45720000D03*
X135509000Y-45720000D03*
X132969000Y-45720000D03*
X130429000Y-45720000D03*
X127889000Y-45720000D03*
X125349000Y-45720000D03*
X122809000Y-45720000D03*
X120269000Y-45720000D03*
X117729000Y-45720000D03*
X115189000Y-45720000D03*
X112649000Y-45720000D03*
X110109000Y-45720000D03*
X107569000Y-45720000D03*
X105029000Y-45720000D03*
X102489000Y-45720000D03*
X99949000Y-45720000D03*
X97409000Y-45720000D03*
X94869000Y-45720000D03*
X92329000Y-45720000D03*
X89789000Y-45720000D03*
X87249000Y-45720000D03*
X84709000Y-45720000D03*
X82169000Y-45720000D03*
X79629000Y-45720000D03*
X77089000Y-45720000D03*
X74549000Y-45720000D03*
X72009000Y-45720000D03*
X69469000Y-45720000D03*
X66929000Y-45720000D03*
D21*
X139446000Y-77216000D03*
D22*
X139446000Y-79756000D03*
X136906000Y-77216000D03*
X136906000Y-79756000D03*
X134366000Y-77216000D03*
X134366000Y-79756000D03*
X131826000Y-77216000D03*
X131826000Y-79756000D03*
D23*
X178784000Y-43434000D03*
X176784000Y-43434000D03*
X174784000Y-43434000D03*
D24*
X172784000Y-43434000D03*
X180784000Y-43434000D03*
D25*
X186000000Y-84308800D03*
X186000000Y-79308800D03*
D26*
X126913640Y-72588120D03*
X158699200Y-71805800D03*
X128803400Y-54188360D03*
X130713480Y-62143640D03*
X137144760Y-65211960D03*
X184150000Y-67564000D03*
X168148000Y-61722000D03*
X160972500Y-55499000D03*
X117030500Y-51689000D03*
X92461080Y-77297280D03*
X97094040Y-57277000D03*
X91170760Y-63032640D03*
X99623880Y-59781440D03*
X116108480Y-81356200D03*
X109976920Y-77627480D03*
X129880360Y-51810920D03*
X130027680Y-70764400D03*
X120050560Y-77089000D03*
X126085600Y-79108300D03*
X129032000Y-64389000D03*
X129794000Y-56134000D03*
X135445500Y-52070000D03*
X134302500Y-47815500D03*
X127876300Y-49784000D03*
X116141500Y-50673000D03*
X98704400Y-68046600D03*
X105918000Y-74383900D03*
X118633240Y-81300320D03*
X133212840Y-84429600D03*
X138922760Y-69326760D03*
X159512000Y-70286880D03*
X138623040Y-57089040D03*
X127477520Y-70027800D03*
X81940400Y-51790600D03*
X108000800Y-51810920D03*
X101249480Y-61401960D03*
X85039200Y-59862720D03*
X122809000Y-62357000D03*
X100177600Y-51447700D03*
X110007400Y-75526900D03*
X80467200Y-59791600D03*
X118745000Y-76926440D03*
X181864000Y-77978000D03*
X184721500Y-90043000D03*
X169773600Y-87325200D03*
X127101600Y-82156300D03*
X115633500Y-75882500D03*
X112763300Y-60261500D03*
X119189500Y-61658500D03*
X109410500Y-53721000D03*
X128574800Y-82346800D03*
X120929400Y-79984600D03*
X122936000Y-73596500D03*
X129730500Y-78638400D03*
X114617500Y-69278500D03*
X115697000Y-68516500D03*
X116776500Y-67881500D03*
X125603000Y-72390000D03*
X120230900Y-69507100D03*
X122047000Y-64643000D03*
X90876120Y-51572160D03*
X99987100Y-57315100D03*
X122110500Y-66040000D03*
X101346000Y-55880000D03*
X122555000Y-67437000D03*
X92567760Y-52608480D03*
X110401100Y-60172600D03*
X106121200Y-52781200D03*
X134112000Y-72021700D03*
X180492400Y-90170000D03*
X180594000Y-86741000D03*
X94310200Y-90906600D03*
X67678300Y-42837100D03*
X64706500Y-42684700D03*
X76225400Y-42900600D03*
X106045000Y-70739000D03*
X106045000Y-69469000D03*
X106045000Y-68072000D03*
X105664000Y-66802000D03*
X108585000Y-60426600D03*
X79806800Y-89763600D03*
X102412800Y-60426600D03*
X75819000Y-44094400D03*
X103428800Y-52547520D03*
X104698800Y-52694840D03*
X97332800Y-71031100D03*
X108508800Y-77241400D03*
X114416840Y-63901320D03*
X130175000Y-63881000D03*
X131622800Y-84790280D03*
X79248000Y-71158100D03*
X91579700Y-83908900D03*
X129286000Y-67691000D03*
X98920300Y-69481700D03*
X129286000Y-66294000D03*
X106946700Y-75057000D03*
X126259400Y-65528000D03*
X92976700Y-69977000D03*
X114620040Y-65105280D03*
X108191300Y-75819000D03*
X126141480Y-57835800D03*
X110617000Y-54292500D03*
X114109500Y-50863500D03*
X116649500Y-49466500D03*
X132588000Y-83337400D03*
X144399000Y-47942500D03*
X111887000Y-76377800D03*
X121285000Y-57404000D03*
X143916400Y-53263800D03*
X145110200Y-53924200D03*
X116332000Y-69596000D03*
X177419000Y-83502500D03*
X117729000Y-69532500D03*
X175641000Y-77724000D03*
X114744500Y-81737200D03*
X106768900Y-78308200D03*
D27*
X119011700Y-88430100D02*
X117589300Y-88430100D01*
X131846320Y-72166480D02*
X131846320Y-72128380D01*
D28*
X130693160Y-73319640D02*
X131846320Y-72166480D01*
X127645160Y-73319640D02*
X130693160Y-73319640D01*
D29*
X133574790Y-70399910D02*
X133577330Y-70399910D01*
X131846320Y-72128380D02*
X133574790Y-70399910D01*
X133577330Y-70399910D02*
X148158200Y-55819040D01*
X148158200Y-55819040D02*
X151003000Y-55819040D01*
X130655060Y-73319640D02*
X131325620Y-72649080D01*
X131325620Y-72649080D02*
X131846320Y-72128380D01*
X127645160Y-73319640D02*
X130655060Y-73319640D01*
X126913640Y-72588120D02*
X127645160Y-73319640D01*
D30*
X183187340Y-53594000D02*
X183187340Y-66601340D01*
D31*
X183187340Y-66601340D02*
X184150000Y-67564000D01*
X168148000Y-61722000D02*
X169418000Y-60452000D01*
X169418000Y-60452000D02*
X179781200Y-60452000D01*
X183187340Y-57045860D02*
X183187340Y-53594000D01*
X179781200Y-60452000D02*
X183187340Y-57045860D01*
X158699200Y-71805800D02*
X163042600Y-71805800D01*
X168148000Y-66700400D02*
X168148000Y-61722000D01*
X163042600Y-71805800D02*
X168148000Y-66700400D01*
D29*
X131450080Y-56992520D02*
X131450080Y-56169560D01*
X129468880Y-54188360D02*
X128803400Y-54188360D01*
X131450080Y-56169560D02*
X129468880Y-54188360D01*
X131450080Y-61407040D02*
X131450080Y-56992520D01*
X130713480Y-62143640D02*
X131450080Y-61407040D01*
X97094040Y-57277000D02*
X97094040Y-59009280D01*
X97866200Y-59781440D02*
X99623880Y-59781440D01*
X97094040Y-59009280D02*
X97866200Y-59781440D01*
X136707880Y-64775080D02*
X136707880Y-64084200D01*
X137144760Y-65211960D02*
X136707880Y-64775080D01*
D32*
X183187340Y-66601340D02*
X184150000Y-67564000D01*
X183187340Y-57096660D02*
X183187340Y-53594000D01*
X169418000Y-60452000D02*
X179832000Y-60452000D01*
X179832000Y-60452000D02*
X183187340Y-57096660D01*
D33*
X183187340Y-53594000D02*
X183187340Y-51894740D01*
X183187340Y-51894740D02*
X180187600Y-48895000D01*
D27*
X122160000Y-51374000D02*
X120904000Y-52630000D01*
X119648000Y-51374000D02*
X120904000Y-52630000D01*
D32*
X67980000Y-54570000D02*
X67980000Y-57110000D01*
X67980000Y-57110000D02*
X67980000Y-59650000D01*
X67980000Y-59650000D02*
X67980000Y-62190000D01*
X67980000Y-62190000D02*
X67980000Y-64730000D01*
X67980000Y-64730000D02*
X67980000Y-67270000D01*
X67980000Y-67270000D02*
X67980000Y-69810000D01*
X67980000Y-69810000D02*
X67980000Y-72350000D01*
X67980000Y-72350000D02*
X67980000Y-74890000D01*
X66929000Y-83058000D02*
X65024000Y-81153000D01*
X65024000Y-81153000D02*
X65024000Y-76263500D01*
X65024000Y-76263500D02*
X66397500Y-74890000D01*
X66397500Y-74890000D02*
X67980000Y-74890000D01*
X66929000Y-86360000D02*
X66929000Y-83058000D01*
D31*
X66929000Y-49657000D02*
X66929000Y-45720000D01*
D30*
X185127460Y-68541460D02*
X184150000Y-67564000D01*
X185127460Y-79288900D02*
X185127460Y-68541460D01*
X167195500Y-61722000D02*
X160972500Y-55499000D01*
X168148000Y-61722000D02*
X167195500Y-61722000D01*
D29*
X117030500Y-51689000D02*
X117345500Y-51374000D01*
D31*
X66929000Y-49657000D02*
X66929000Y-45720000D01*
X66929000Y-53519000D02*
X67980000Y-54570000D01*
X66929000Y-45720000D02*
X66929000Y-53519000D01*
X66929000Y-84790280D02*
X68681600Y-83037680D01*
X68681600Y-83037680D02*
X76499720Y-83037680D01*
X76499720Y-83037680D02*
X83337400Y-76200000D01*
X83337400Y-76200000D02*
X91363800Y-76200000D01*
X91363800Y-76200000D02*
X92461080Y-77297280D01*
X66929000Y-86360000D02*
X66929000Y-84790280D01*
X97094040Y-57277000D02*
X91338400Y-63032640D01*
X91338400Y-63032640D02*
X91170760Y-63032640D01*
D27*
X109976920Y-77627480D02*
X109951520Y-77627480D01*
D28*
X112379760Y-77627480D02*
X109976920Y-77627480D01*
X116108480Y-81356200D02*
X112379760Y-77627480D01*
D29*
X129443440Y-51374000D02*
X129880360Y-51810920D01*
X123190000Y-51374000D02*
X129443440Y-51374000D01*
X130027680Y-70764400D02*
X136707880Y-64084200D01*
X136707880Y-64084200D02*
X147553680Y-53238400D01*
D30*
X158711900Y-53238400D02*
X160972500Y-55499000D01*
X147553680Y-53238400D02*
X158711900Y-53238400D01*
D28*
X120050560Y-77541120D02*
X119410480Y-78181200D01*
X119410480Y-78181200D02*
X117805200Y-78181200D01*
X117805200Y-78181200D02*
X117261640Y-77637640D01*
X117261640Y-77637640D02*
X117261640Y-75702160D01*
X117261640Y-75702160D02*
X116438680Y-74879200D01*
X116438680Y-74879200D02*
X113497360Y-74879200D01*
D27*
X113492280Y-74884280D02*
X113487200Y-74889360D01*
X113497360Y-74879200D02*
X113492280Y-74884280D01*
X120050560Y-77089000D02*
X120050560Y-77541120D01*
D28*
X111724440Y-74884280D02*
X110926880Y-75681840D01*
X110926880Y-75681840D02*
X110926880Y-76677520D01*
X110926880Y-76677520D02*
X109976920Y-77627480D01*
X113492280Y-74884280D02*
X111724440Y-74884280D01*
D27*
X120050560Y-77089000D02*
X120050560Y-77137260D01*
D28*
X122021600Y-79108300D02*
X126085600Y-79108300D01*
X120050560Y-77137260D02*
X122021600Y-79108300D01*
D29*
X117345500Y-51374000D02*
X117030500Y-51689000D01*
X118618000Y-51374000D02*
X117345500Y-51374000D01*
X119648000Y-51374000D02*
X120904000Y-52630000D01*
X118618000Y-51374000D02*
X119648000Y-51374000D01*
X122160000Y-51374000D02*
X120904000Y-52630000D01*
X123190000Y-51374000D02*
X122160000Y-51374000D01*
D31*
X123190000Y-54343300D02*
X121653300Y-55880000D01*
X123190000Y-53274000D02*
X123190000Y-54343300D01*
X118618000Y-54343300D02*
X120154700Y-55880000D01*
X118618000Y-53274000D02*
X118618000Y-54343300D01*
D27*
X129032000Y-64389000D02*
X129159000Y-64262000D01*
D29*
X129032000Y-59944000D02*
X129794000Y-59182000D01*
X129794000Y-59182000D02*
X129794000Y-56134000D01*
X129032000Y-64389000D02*
X129032000Y-59944000D01*
X135445500Y-48958500D02*
X135445500Y-52070000D01*
X134302500Y-47815500D02*
X135445500Y-48958500D01*
D27*
X127622300Y-50038000D02*
X127876300Y-49784000D01*
X127609600Y-50038000D02*
X127622300Y-50038000D01*
D29*
X117919500Y-50038000D02*
X127609600Y-50038000D01*
X117411500Y-50546000D02*
X117919500Y-50038000D01*
X116268500Y-50546000D02*
X117411500Y-50546000D01*
D27*
X116141500Y-50673000D02*
X116268500Y-50546000D01*
D29*
X101249480Y-65501520D02*
X101249480Y-61401960D01*
X98704400Y-68046600D02*
X101249480Y-65501520D01*
D28*
X105702100Y-74739500D02*
X105702100Y-74599800D01*
X118633240Y-81391760D02*
X117246400Y-82778600D01*
X117246400Y-82778600D02*
X114236500Y-82778600D01*
X114236500Y-82778600D02*
X111823500Y-80365600D01*
X111823500Y-80365600D02*
X106832400Y-80365600D01*
X106832400Y-80365600D02*
X105702100Y-79235300D01*
X105702100Y-79235300D02*
X105702100Y-74739500D01*
X118633240Y-81300320D02*
X118633240Y-81391760D01*
X105702100Y-74599800D02*
X105918000Y-74383900D01*
X119649240Y-82631280D02*
X119649240Y-82859880D01*
X118633240Y-81300320D02*
X119649240Y-82316320D01*
X119649240Y-82316320D02*
X119649240Y-82631280D01*
D27*
X132501640Y-84429600D02*
X133212840Y-84429600D01*
X131810760Y-83738720D02*
X132501640Y-84429600D01*
D28*
X130799840Y-83738720D02*
X131810760Y-83738720D01*
X130312160Y-84226400D02*
X130799840Y-83738720D01*
X121015760Y-84226400D02*
X130312160Y-84226400D01*
X119649240Y-82859880D02*
X121015760Y-84226400D01*
D30*
X138922760Y-69326760D02*
X139882880Y-70286880D01*
X139882880Y-70286880D02*
X159512000Y-70286880D01*
D27*
X136621520Y-61818520D02*
X136631680Y-61818520D01*
D29*
X128412240Y-70027800D02*
X136621520Y-61818520D01*
D28*
X127477520Y-70027800D02*
X128412240Y-70027800D01*
D29*
X138623040Y-59827160D02*
X138623040Y-57089040D01*
X136631680Y-61818520D02*
X138623040Y-59827160D01*
X81940400Y-50581560D02*
X81940400Y-51790600D01*
X82707480Y-49814480D02*
X81940400Y-50581560D01*
D28*
X101539040Y-49814480D02*
X82707480Y-49814480D01*
X102367080Y-50642520D02*
X101539040Y-49814480D01*
X102367080Y-53025040D02*
X102367080Y-50642520D01*
X104307640Y-54965600D02*
X102367080Y-53025040D01*
D29*
X106613960Y-54965600D02*
X104307640Y-54965600D01*
X108127800Y-53451760D02*
X106613960Y-54965600D01*
X108127800Y-51937920D02*
X108127800Y-53451760D01*
D28*
X108000800Y-51810920D02*
X108127800Y-51937920D01*
D29*
X101249480Y-61401960D02*
X97561400Y-65090040D01*
D28*
X85039200Y-60167520D02*
X85039200Y-59862720D01*
D29*
X89961720Y-65090040D02*
X85039200Y-60167520D01*
X97561400Y-65090040D02*
X89961720Y-65090040D01*
D27*
X122301000Y-59817000D02*
X122174000Y-59690000D01*
X122809000Y-62103000D02*
X122809000Y-61722000D01*
D28*
X122809000Y-60642500D02*
X122809000Y-60325000D01*
X122809000Y-61722000D02*
X122809000Y-60642500D01*
X122809000Y-60325000D02*
X122174000Y-59690000D01*
D27*
X122809000Y-61595000D02*
X122809000Y-61722000D01*
D28*
X122809000Y-62357000D02*
X122809000Y-61595000D01*
D31*
X72009000Y-49149000D02*
X72009000Y-45720000D01*
X73025000Y-50165000D02*
X72009000Y-49149000D01*
X73025000Y-58610500D02*
X73025000Y-50165000D01*
X71985500Y-59650000D02*
X73025000Y-58610500D01*
X70520000Y-59650000D02*
X71985500Y-59650000D01*
D28*
X100584000Y-52984400D02*
X100584000Y-51854100D01*
D27*
X121500900Y-59016900D02*
X120040400Y-59016900D01*
D28*
X122174000Y-59690000D02*
X121500900Y-59016900D01*
D27*
X116039900Y-59016900D02*
X113569750Y-56546750D01*
X120040400Y-59016900D02*
X116039900Y-59016900D01*
X104146350Y-56546750D02*
X100584000Y-52984400D01*
X113569750Y-56546750D02*
X104146350Y-56546750D01*
D28*
X100584000Y-51854100D02*
X100177600Y-51447700D01*
D27*
X114808000Y-73888600D02*
X113004600Y-73888600D01*
X111391700Y-73888600D02*
X110007400Y-75272900D01*
X110007400Y-75272900D02*
X110007400Y-75526900D01*
X112153700Y-73888600D02*
X111391700Y-73888600D01*
X113004600Y-73888600D02*
X112153700Y-73888600D01*
D31*
X74422000Y-45847000D02*
X74549000Y-45720000D01*
X80467200Y-59791600D02*
X74422000Y-53746400D01*
X74422000Y-53746400D02*
X74422000Y-45847000D01*
D28*
X111394240Y-73888600D02*
X110007400Y-75275440D01*
D27*
X110007400Y-75275440D02*
X110007400Y-75526900D01*
D28*
X114808000Y-73888600D02*
X111394240Y-73888600D01*
X118745000Y-75275440D02*
X117774720Y-74305160D01*
X117774720Y-74305160D02*
X115224560Y-74305160D01*
X115224560Y-74305160D02*
X114808000Y-73888600D01*
X118745000Y-76926440D02*
X118745000Y-75275440D01*
D30*
X183070500Y-79184500D02*
X181864000Y-77978000D01*
X183070500Y-88341200D02*
X183070500Y-79184500D01*
D31*
X183070500Y-88392000D02*
X183070500Y-88341200D01*
D30*
X184721500Y-90043000D02*
X183070500Y-88392000D01*
X169773600Y-87325200D02*
X170230800Y-86868000D01*
X170230800Y-86868000D02*
X177952400Y-86868000D01*
X177952400Y-86868000D02*
X179425600Y-88341200D01*
X179425600Y-88341200D02*
X183070500Y-88341200D01*
D32*
X177187860Y-53594000D02*
X177187860Y-51711860D01*
X178784000Y-44990000D02*
X178784000Y-43434000D01*
X176784000Y-46990000D02*
X178784000Y-44990000D01*
X176784000Y-51308000D02*
X176784000Y-46990000D01*
X177187860Y-51711860D02*
X176784000Y-51308000D01*
D28*
X126657100Y-82600800D02*
X122250200Y-82600800D01*
X127101600Y-82156300D02*
X126657100Y-82600800D01*
X122250200Y-82600800D02*
X118757700Y-79108300D01*
X116954300Y-79108300D02*
X115633500Y-77787500D01*
X115633500Y-77787500D02*
X115633500Y-75882500D01*
X118757700Y-79108300D02*
X116954300Y-79108300D01*
X119189500Y-61658500D02*
X114160300Y-61658500D01*
X114160300Y-61658500D02*
X112763300Y-60261500D01*
X122199400Y-43840400D02*
X122809000Y-44450000D01*
X114338100Y-43840400D02*
X122199400Y-43840400D01*
X113919000Y-44259500D02*
X114338100Y-43840400D01*
X113919000Y-49212500D02*
X113919000Y-44259500D01*
D29*
X109410500Y-53721000D02*
X113919000Y-49212500D01*
D28*
X122809000Y-44450000D02*
X122809000Y-45720000D01*
X128574800Y-82308700D02*
X127279400Y-81013300D01*
D27*
X128574800Y-82346800D02*
X128574800Y-82308700D01*
D28*
X120929400Y-79984600D02*
X121412000Y-80467200D01*
X121412000Y-80467200D02*
X126733300Y-80467200D01*
X126733300Y-80467200D02*
X127279400Y-81013300D01*
X125806200Y-75819000D02*
X127762000Y-75819000D01*
X129730500Y-77787500D02*
X129730500Y-78638400D01*
X127762000Y-75819000D02*
X129730500Y-77787500D01*
X122936000Y-74549000D02*
X124206000Y-75819000D01*
X124206000Y-75819000D02*
X125806200Y-75819000D01*
X122936000Y-73596500D02*
X122936000Y-74549000D01*
D27*
X135662670Y-82386170D02*
X135660130Y-82386170D01*
X130540760Y-80919320D02*
X130540760Y-80921860D01*
D28*
X130997960Y-81376520D02*
X130540760Y-80919320D01*
X134650480Y-81376520D02*
X130997960Y-81376520D01*
X135660130Y-82386170D02*
X134650480Y-81376520D01*
D27*
X129635250Y-80016350D02*
X129133600Y-79514700D01*
D28*
X130540760Y-80921860D02*
X129635250Y-80016350D01*
X135662670Y-82386170D02*
X138049000Y-84772500D01*
D31*
X138049000Y-84772500D02*
X138049000Y-86360000D01*
D28*
X118364000Y-72199500D02*
X118999000Y-72199500D01*
D27*
X118999000Y-72199500D02*
X118872000Y-72199500D01*
D28*
X116078000Y-72199500D02*
X118364000Y-72199500D01*
X114363500Y-70485000D02*
X116078000Y-72199500D01*
X114363500Y-69532500D02*
X114363500Y-70485000D01*
X114617500Y-69278500D02*
X114363500Y-69532500D01*
X121793000Y-74803000D02*
X119189500Y-72199500D01*
X123615450Y-76625450D02*
X125253750Y-76625450D01*
X121793000Y-74803000D02*
X123615450Y-76625450D01*
X129635250Y-80016350D02*
X128473200Y-78854300D01*
X128473200Y-78854300D02*
X128473200Y-77635100D01*
X127463550Y-76625450D02*
X128225550Y-77387450D01*
X125253750Y-76625450D02*
X127463550Y-76625450D01*
X128225550Y-77387450D02*
X128473200Y-77635100D01*
X118872000Y-72199500D02*
X119189500Y-72199500D01*
X121218960Y-75361800D02*
X120891300Y-75361800D01*
X123231910Y-77374750D02*
X121218960Y-75361800D01*
D27*
X130453130Y-81926430D02*
X134352030Y-81926430D01*
D28*
X135509000Y-83083400D02*
X135509000Y-86360000D01*
D27*
X134352030Y-81926430D02*
X135509000Y-83083400D01*
X128498600Y-80340200D02*
X127800100Y-79641700D01*
X128866900Y-80340200D02*
X128498600Y-80340200D01*
X130453130Y-81926430D02*
X128866900Y-80340200D01*
D28*
X113728500Y-71056500D02*
X115570000Y-72898000D01*
X115570000Y-68389500D02*
X114109500Y-68389500D01*
X115697000Y-68516500D02*
X115570000Y-68389500D01*
X115570000Y-72898000D02*
X118173500Y-72898000D01*
X119126000Y-73596500D02*
X120891300Y-75361800D01*
X118427500Y-72898000D02*
X119126000Y-73596500D01*
X118173500Y-72898000D02*
X117983000Y-72898000D01*
X114109500Y-68389500D02*
X113728500Y-68770500D01*
X113728500Y-68770500D02*
X113728500Y-71056500D01*
X127095250Y-77374750D02*
X127800100Y-78079600D01*
X127800100Y-78079600D02*
X127800100Y-79641700D01*
X123231910Y-77374750D02*
X127095250Y-77374750D01*
X118427500Y-72898000D02*
X119126000Y-73596500D01*
X117983000Y-72898000D02*
X118427500Y-72898000D01*
D27*
X132969000Y-86360000D02*
X132969000Y-85940900D01*
D28*
X113157000Y-71374000D02*
X115379500Y-73596500D01*
X115379500Y-73596500D02*
X117729000Y-73596500D01*
X127190500Y-78600300D02*
X127190500Y-79946500D01*
X126650750Y-78060550D02*
X127190500Y-78600300D01*
X118110000Y-73596500D02*
X122567700Y-78054200D01*
D27*
X129975610Y-82464910D02*
X128346200Y-80835500D01*
X128346200Y-80835500D02*
X128079500Y-80835500D01*
D28*
X128079500Y-80835500D02*
X127190500Y-79946500D01*
X132969000Y-85940900D02*
X133969760Y-84940140D01*
X133732270Y-82464910D02*
X134716520Y-83449160D01*
X134716520Y-83449160D02*
X134716520Y-84195920D01*
X134716520Y-84195920D02*
X133969760Y-84942680D01*
D27*
X133969760Y-84942680D02*
X133969760Y-84940140D01*
D28*
X129975610Y-82464910D02*
X133732270Y-82464910D01*
D27*
X124161550Y-78060550D02*
X124155200Y-78054200D01*
D28*
X124155200Y-78054200D02*
X122567700Y-78054200D01*
X124161550Y-78060550D02*
X126650750Y-78060550D01*
X117729000Y-73596500D02*
X118110000Y-73596500D01*
X116776500Y-67627500D02*
X116332000Y-67183000D01*
X116332000Y-67183000D02*
X114300000Y-67183000D01*
X114300000Y-67183000D02*
X113157000Y-68326000D01*
X113157000Y-68326000D02*
X113157000Y-71374000D01*
X116776500Y-67881500D02*
X116776500Y-67627500D01*
D27*
X125222000Y-72390000D02*
X125603000Y-72390000D01*
X123444000Y-70612000D02*
X125222000Y-72390000D01*
X120230900Y-69507100D02*
X120611900Y-69888100D01*
D28*
X120230900Y-69557900D02*
X121285000Y-70612000D01*
X121285000Y-70612000D02*
X123444000Y-70612000D01*
X120230900Y-69507100D02*
X120230900Y-69557900D01*
X107950000Y-62661800D02*
X108191300Y-62420500D01*
D27*
X106502200Y-71602600D02*
X106781600Y-71602600D01*
D28*
X107950000Y-70434200D02*
X107950000Y-62661800D01*
D27*
X106781600Y-71602600D02*
X107950000Y-70434200D01*
X106502200Y-71602600D02*
X104736900Y-71602600D01*
D28*
X103327200Y-73012300D02*
X103327200Y-76581000D01*
X104736900Y-71602600D02*
X103327200Y-73012300D01*
D29*
X115265200Y-89293700D02*
X112750600Y-89293700D01*
D31*
X122809000Y-86360000D02*
X122809000Y-87909400D01*
D29*
X121424700Y-89293700D02*
X115265200Y-89293700D01*
X122809000Y-87909400D02*
X121424700Y-89293700D01*
X112750600Y-89293700D02*
X111379000Y-87922100D01*
D28*
X111379000Y-87922100D02*
X111379000Y-84988400D01*
X111379000Y-84988400D02*
X109601000Y-83210400D01*
D27*
X109601000Y-83210400D02*
X104914700Y-83210400D01*
D28*
X104914700Y-83210400D02*
X103327200Y-81622900D01*
D27*
X103327200Y-81622900D02*
X103327200Y-76581000D01*
D28*
X113182400Y-57099200D02*
X103873300Y-57099200D01*
X121793000Y-62611000D02*
X121793000Y-60198000D01*
X121793000Y-60198000D02*
X121158000Y-59563000D01*
X122110500Y-62928500D02*
X121793000Y-62611000D01*
X122110500Y-64579500D02*
X122110500Y-62928500D01*
D27*
X122047000Y-64643000D02*
X122110500Y-64579500D01*
X93421200Y-51689000D02*
X93345000Y-51689000D01*
D28*
X98463100Y-51689000D02*
X93421200Y-51689000D01*
X103873300Y-57099200D02*
X98463100Y-51689000D01*
D27*
X121158000Y-59563000D02*
X121119900Y-59524900D01*
X121119900Y-59524900D02*
X115608100Y-59524900D01*
D28*
X115608100Y-59524900D02*
X113182400Y-57099200D01*
D27*
X98888550Y-57804050D02*
X98888550Y-57796430D01*
D28*
X90876120Y-52974240D02*
X90876120Y-51572160D01*
X93665040Y-55763160D02*
X90876120Y-52974240D01*
X98018600Y-55763160D02*
X93665040Y-55763160D01*
X98552000Y-56296560D02*
X98018600Y-55763160D01*
X98552000Y-57459880D02*
X98552000Y-56296560D01*
X98888550Y-57796430D02*
X98552000Y-57459880D01*
D27*
X109448600Y-61163200D02*
X109448600Y-59893200D01*
X109448600Y-59893200D02*
X109131100Y-59575700D01*
X109131100Y-59575700D02*
X100660200Y-59575700D01*
D28*
X100660200Y-59575700D02*
X99259390Y-58174890D01*
X108191300Y-62420500D02*
X109448600Y-61163200D01*
X99259390Y-58174890D02*
X98888550Y-57804050D01*
D27*
X90992960Y-51689000D02*
X90876120Y-51572160D01*
D28*
X93421200Y-51689000D02*
X90992960Y-51689000D01*
D27*
X111239300Y-60528200D02*
X111239300Y-61036200D01*
D28*
X101460300Y-58788300D02*
X99987100Y-57315100D01*
X110350300Y-58788300D02*
X101460300Y-58788300D01*
D27*
X111239300Y-59677300D02*
X110350300Y-58788300D01*
X111239300Y-60528200D02*
X111239300Y-59677300D01*
D28*
X116471700Y-85013800D02*
X115468400Y-84010500D01*
X115468400Y-84010500D02*
X113093500Y-84010500D01*
X113093500Y-84010500D02*
X110871000Y-81788000D01*
X110871000Y-81788000D02*
X105580180Y-81788000D01*
D27*
X105580180Y-81788000D02*
X104343202Y-80551022D01*
X104343202Y-80551022D02*
X104343202Y-75577700D01*
D28*
X116471700Y-85432900D02*
X116471700Y-85013800D01*
D27*
X104343202Y-73850498D02*
X105562400Y-72631300D01*
X105562400Y-72631300D02*
X107111800Y-72631300D01*
X104343202Y-75577700D02*
X104343202Y-73850498D01*
X107962700Y-72631300D02*
X109601000Y-70993000D01*
D28*
X109601000Y-70993000D02*
X109601000Y-62992000D01*
X109601000Y-62992000D02*
X111239300Y-61353700D01*
D27*
X111239300Y-61353700D02*
X111239300Y-61036200D01*
X107111800Y-72631300D02*
X107962700Y-72631300D01*
D28*
X116471700Y-87312500D02*
X116471700Y-85432900D01*
D27*
X120269000Y-86360000D02*
X120269000Y-87172800D01*
D28*
X121031000Y-63500000D02*
X121031000Y-61366400D01*
X121031000Y-64960500D02*
X121031000Y-63500000D01*
X122110500Y-66040000D02*
X121031000Y-64960500D01*
X121031000Y-60985400D02*
X120103900Y-60058300D01*
D27*
X120103900Y-60058300D02*
X115290600Y-60058300D01*
X115290600Y-60058300D02*
X114198400Y-58966100D01*
D28*
X121031000Y-61366400D02*
X121031000Y-60985400D01*
D27*
X101346000Y-56210200D02*
X102793800Y-57658000D01*
X102793800Y-57658000D02*
X112890300Y-57658000D01*
X112890300Y-57658000D02*
X114198400Y-58966100D01*
D28*
X101346000Y-55880000D02*
X101346000Y-56210200D01*
D29*
X120269000Y-87757000D02*
X119595900Y-88430100D01*
X119595900Y-88430100D02*
X116878100Y-88430100D01*
X116878100Y-88430100D02*
X116471700Y-88023700D01*
X116471700Y-88023700D02*
X116471700Y-87312500D01*
D31*
X120269000Y-86360000D02*
X120269000Y-87757000D01*
D28*
X117729000Y-86360000D02*
X117729000Y-84645500D01*
X110363000Y-63233300D02*
X111810800Y-61785500D01*
X110363000Y-71120000D02*
X110363000Y-63233300D01*
X108343700Y-73139300D02*
X110363000Y-71120000D01*
D27*
X105943400Y-73139300D02*
X108343700Y-73139300D01*
X105054400Y-74028300D02*
X105943400Y-73139300D01*
X105054400Y-79870300D02*
X105054400Y-74028300D01*
D28*
X106299000Y-81114900D02*
X105054400Y-79870300D01*
X111417100Y-81114900D02*
X106299000Y-81114900D01*
X113703100Y-83400900D02*
X111417100Y-81114900D01*
X116484400Y-83400900D02*
X113703100Y-83400900D01*
X117729000Y-84645500D02*
X116484400Y-83400900D01*
D27*
X111810800Y-59613800D02*
X111810800Y-59436000D01*
D28*
X112382300Y-58864500D02*
X113309400Y-58864500D01*
X111810800Y-59436000D02*
X112382300Y-58864500D01*
X110731300Y-58216800D02*
X111810800Y-59296300D01*
X101777800Y-57708800D02*
X102285800Y-58216800D01*
X102285800Y-58216800D02*
X110731300Y-58216800D01*
D27*
X111810800Y-59639200D02*
X111810800Y-59613800D01*
X111810800Y-59613800D02*
X111810800Y-59296300D01*
D28*
X111810800Y-59944000D02*
X111810800Y-59639200D01*
X111810800Y-61785500D02*
X111810800Y-59944000D01*
D27*
X117729000Y-86360000D02*
X117729000Y-85915500D01*
D28*
X122555000Y-67437000D02*
X122110500Y-67437000D01*
X120332500Y-61214000D02*
X119733300Y-60614800D01*
X120332500Y-65659000D02*
X120332500Y-61214000D01*
X122110500Y-67437000D02*
X120332500Y-65659000D01*
X119733300Y-60614800D02*
X115059700Y-60614800D01*
X115059700Y-60614800D02*
X113309400Y-58864500D01*
X102031800Y-57962800D02*
X101777800Y-57708800D01*
D27*
X92664280Y-52705000D02*
X92567760Y-52608480D01*
D28*
X101777800Y-57708800D02*
X101409500Y-57340500D01*
X101409500Y-57340500D02*
X99949000Y-55880000D01*
X99949000Y-55880000D02*
X99949000Y-54610000D01*
X99949000Y-54610000D02*
X98044000Y-52705000D01*
X98044000Y-52705000D02*
X95250000Y-52705000D01*
X95250000Y-52705000D02*
X92664280Y-52705000D01*
X111810800Y-59944000D02*
X111810800Y-59296300D01*
X108839000Y-62674500D02*
X110401100Y-61112400D01*
D27*
X106591100Y-72085202D02*
X107365798Y-72085202D01*
D28*
X110401100Y-61112400D02*
X110401100Y-60172600D01*
X108839000Y-70612000D02*
X108839000Y-62674500D01*
X107365798Y-72085202D02*
X108839000Y-70612000D01*
D27*
X115189000Y-86360000D02*
X115189000Y-85750400D01*
X114427000Y-84988400D02*
X114007900Y-84569300D01*
X115189000Y-85750400D02*
X114427000Y-84988400D01*
X103860600Y-81234280D02*
X103860600Y-80010000D01*
D28*
X105150920Y-82524600D02*
X103860600Y-81234280D01*
X110566200Y-82524600D02*
X105150920Y-82524600D01*
X112610900Y-84569300D02*
X110566200Y-82524600D01*
D27*
X114007900Y-84569300D02*
X112610900Y-84569300D01*
X105117898Y-72085202D02*
X106591100Y-72085202D01*
X103860600Y-73342500D02*
X105117898Y-72085202D01*
X103860600Y-80314800D02*
X103860600Y-80010000D01*
X103860600Y-80010000D02*
X103860600Y-73342500D01*
X100858320Y-47721520D02*
X100858320Y-47726600D01*
D29*
X104749600Y-47721520D02*
X100858320Y-47721520D01*
X106121200Y-49093120D02*
X104749600Y-47721520D01*
X100858320Y-47726600D02*
X95478600Y-47726600D01*
X95478600Y-47726600D02*
X94869000Y-47117000D01*
X94869000Y-47117000D02*
X94869000Y-45720000D01*
X106121200Y-52781200D02*
X106121200Y-49093120D01*
D28*
X114427000Y-84963000D02*
X114427000Y-84988400D01*
X115189000Y-85725000D02*
X114427000Y-84963000D01*
X115189000Y-86360000D02*
X115189000Y-85725000D01*
D31*
X107569000Y-86360000D02*
X107569000Y-88595200D01*
D29*
X179603400Y-91059000D02*
X180492400Y-90170000D01*
X110032800Y-91059000D02*
X179603400Y-91059000D01*
X107569000Y-88595200D02*
X110032800Y-91059000D01*
D27*
X135686800Y-72859900D02*
X135686800Y-72898000D01*
X135648700Y-72898000D02*
X135686800Y-72859900D01*
X134988300Y-72898000D02*
X135648700Y-72898000D01*
D30*
X134112000Y-72021700D02*
X134988300Y-72898000D01*
D29*
X180428900Y-90233500D02*
X180492400Y-90170000D01*
D30*
X180594000Y-86741000D02*
X180594000Y-78486000D01*
X175006000Y-72898000D02*
X161163000Y-72898000D01*
X180594000Y-78486000D02*
X175006000Y-72898000D01*
D27*
X161163000Y-72898000D02*
X161671000Y-72898000D01*
D30*
X135001000Y-72898000D02*
X135686800Y-72898000D01*
X135686800Y-72898000D02*
X161163000Y-72898000D01*
D29*
X107569000Y-88163400D02*
X107569000Y-86360000D01*
X97409000Y-87807800D02*
X94310200Y-90906600D01*
D31*
X97409000Y-86360000D02*
X97409000Y-87807800D01*
D28*
X67678300Y-42837100D02*
X67525900Y-42684700D01*
D29*
X67525900Y-42684700D02*
X64706500Y-42684700D01*
D28*
X76225400Y-42900600D02*
X76225400Y-42849800D01*
D29*
X62357000Y-43586400D02*
X62357000Y-45059600D01*
X64287400Y-41656000D02*
X62357000Y-43586400D01*
X75031600Y-41656000D02*
X64287400Y-41656000D01*
X76225400Y-42849800D02*
X75031600Y-41656000D01*
D31*
X94869000Y-86360000D02*
X94869000Y-88087200D01*
D29*
X94869000Y-88087200D02*
X91973400Y-90982800D01*
X91973400Y-90982800D02*
X66700400Y-90982800D01*
X66700400Y-90982800D02*
X62357000Y-86639400D01*
X62357000Y-86639400D02*
X62357000Y-45059600D01*
D28*
X102616000Y-81026000D02*
X102607068Y-81026000D01*
X102382934Y-81250134D02*
X102382934Y-81259066D01*
X102607068Y-81026000D02*
X102382934Y-81250134D01*
X106045000Y-70739000D02*
X104736900Y-70739000D01*
D27*
X102628700Y-81013300D02*
X102616000Y-81026000D01*
X102382934Y-81259066D02*
X102387400Y-81254600D01*
D28*
X102628700Y-72847200D02*
X102628700Y-81013300D01*
X104736900Y-70739000D02*
X102628700Y-72847200D01*
X101854000Y-81788000D02*
X100965000Y-82677000D01*
X102387400Y-81254600D02*
X101854000Y-81788000D01*
D31*
X89789000Y-83858100D02*
X89789000Y-86360000D01*
D29*
X90970100Y-82677000D02*
X89789000Y-83858100D01*
X100965000Y-82677000D02*
X90970100Y-82677000D01*
D28*
X106045000Y-69469000D02*
X105168700Y-69469000D01*
X101981000Y-72656700D02*
X101981000Y-73279000D01*
X105168700Y-69469000D02*
X101981000Y-72656700D01*
D31*
X87249000Y-84328000D02*
X87249000Y-86360000D01*
D28*
X101981000Y-73279000D02*
X101981000Y-80772000D01*
D29*
X101981000Y-80772000D02*
X100838000Y-81915000D01*
X100838000Y-81915000D02*
X89662000Y-81915000D01*
X89662000Y-81915000D02*
X87249000Y-84328000D01*
D31*
X84709000Y-84328000D02*
X84709000Y-86360000D01*
D28*
X106045000Y-68072000D02*
X105918000Y-68199000D01*
X105918000Y-68199000D02*
X105283000Y-68199000D01*
X105283000Y-68199000D02*
X101219000Y-72263000D01*
X101219000Y-72263000D02*
X101219000Y-80518000D01*
D29*
X101219000Y-80518000D02*
X100584000Y-81153000D01*
X100584000Y-81153000D02*
X87884000Y-81153000D01*
X87884000Y-81153000D02*
X84709000Y-84328000D01*
D31*
X82169000Y-82804000D02*
X82169000Y-86360000D01*
D28*
X105664000Y-66802000D02*
X100457000Y-72009000D01*
X100457000Y-72009000D02*
X100457000Y-79756000D01*
D29*
X100457000Y-79756000D02*
X99949000Y-80264000D01*
X99949000Y-80264000D02*
X84709000Y-80264000D01*
X84709000Y-80264000D02*
X82169000Y-82804000D01*
D31*
X79629000Y-86360000D02*
X79629000Y-83312000D01*
D28*
X104489250Y-64522350D02*
X104489250Y-66452750D01*
X108585000Y-60426600D02*
X104489250Y-64522350D01*
D27*
X104489250Y-66421000D02*
X104489250Y-66452750D01*
X104489250Y-66198750D02*
X104489250Y-66421000D01*
D29*
X79629000Y-89585800D02*
X79629000Y-86360000D01*
X79806800Y-89763600D02*
X79629000Y-89585800D01*
D28*
X99441000Y-71882000D02*
X99441000Y-72644000D01*
X104489250Y-66421000D02*
X104489250Y-66833750D01*
D29*
X98679000Y-79375000D02*
X83566000Y-79375000D01*
X99441000Y-78613000D02*
X98679000Y-79375000D01*
D28*
X99441000Y-72644000D02*
X99441000Y-78613000D01*
D29*
X83566000Y-79375000D02*
X79629000Y-83312000D01*
D28*
X104489250Y-66833750D02*
X99441000Y-71882000D01*
D29*
X82905600Y-78384400D02*
X96545400Y-78384400D01*
X96545400Y-78384400D02*
X98425000Y-76504800D01*
X98425000Y-76504800D02*
X98425000Y-71526400D01*
X77089000Y-84201000D02*
X82905600Y-78384400D01*
X102412800Y-67538600D02*
X98425000Y-71526400D01*
X102412800Y-60426600D02*
X102412800Y-67538600D01*
X77089000Y-86360000D02*
X77089000Y-84201000D01*
X74549000Y-86360000D02*
X74549000Y-87757000D01*
X63754000Y-86207600D02*
X63754000Y-45161200D01*
X66344800Y-88798400D02*
X63754000Y-86207600D01*
X73507600Y-88798400D02*
X66344800Y-88798400D01*
X74549000Y-87757000D02*
X73507600Y-88798400D01*
D28*
X75539600Y-43815000D02*
X75819000Y-44094400D01*
D29*
X65100200Y-43815000D02*
X75539600Y-43815000D01*
X63754000Y-45161200D02*
X65100200Y-43815000D01*
D27*
X103428800Y-52547520D02*
X103662480Y-52313840D01*
D29*
X103662480Y-52313840D02*
X103662480Y-50800000D01*
D27*
X103662480Y-50627280D02*
X103378000Y-50342800D01*
D28*
X100177600Y-49212500D02*
X88709500Y-49212500D01*
D29*
X103378000Y-50342800D02*
X102255320Y-49220120D01*
D28*
X102255320Y-49220120D02*
X100177600Y-49220120D01*
D27*
X100177600Y-49220120D02*
X100177600Y-49212500D01*
D28*
X88709500Y-49212500D02*
X88265000Y-48768000D01*
D29*
X87249000Y-47752000D02*
X87249000Y-45720000D01*
X103662480Y-50627280D02*
X103378000Y-50342800D01*
X103662480Y-50800000D02*
X103662480Y-50627280D01*
X87249000Y-47752000D02*
X88265000Y-48768000D01*
X89789000Y-44729400D02*
X89789000Y-45720000D01*
D27*
X104698800Y-52694840D02*
X104648000Y-52644040D01*
D29*
X104648000Y-52644040D02*
X104648000Y-49357280D01*
X89789000Y-46776640D02*
X89789000Y-45720000D01*
X91440000Y-48427640D02*
X89789000Y-46776640D01*
X103718360Y-48427640D02*
X91440000Y-48427640D01*
X104648000Y-49357280D02*
X103718360Y-48427640D01*
X78386300Y-74890000D02*
X70520000Y-74890000D01*
D27*
X115506500Y-66192400D02*
X115265200Y-66433700D01*
D28*
X109093000Y-76657200D02*
X108508800Y-77241400D01*
X112420400Y-67995800D02*
X112420400Y-71247000D01*
X113982500Y-66433700D02*
X112420400Y-67995800D01*
X115265200Y-66433700D02*
X113982500Y-66433700D01*
D27*
X111048800Y-73304400D02*
X109093000Y-75260200D01*
D28*
X109093000Y-75260200D02*
X109093000Y-76657200D01*
D29*
X97332800Y-71386700D02*
X93840300Y-74879200D01*
X93840300Y-74879200D02*
X78397100Y-74879200D01*
D27*
X78397100Y-74879200D02*
X78386300Y-74890000D01*
D29*
X97332800Y-71031100D02*
X97332800Y-71386700D01*
D27*
X115506500Y-64543940D02*
X115506500Y-66192400D01*
X114416840Y-63901320D02*
X114447320Y-63931800D01*
D28*
X114447320Y-63931800D02*
X114922300Y-63931800D01*
X114922300Y-63931800D02*
X115506500Y-64516000D01*
X115506500Y-64516000D02*
X115506500Y-66192400D01*
X112420400Y-71932800D02*
X111048800Y-73304400D01*
X112420400Y-71247000D02*
X112420400Y-71932800D01*
X128473200Y-70998080D02*
X128564640Y-70906640D01*
D34*
X120751600Y-68859400D02*
X120751602Y-68859400D01*
D27*
X123555760Y-69936360D02*
X123565920Y-69936360D01*
X123565920Y-69936360D02*
X124627640Y-70998080D01*
X120751600Y-68859400D02*
X118325900Y-66433700D01*
D28*
X118325900Y-66433700D02*
X115265200Y-66433700D01*
D34*
X120751602Y-68859400D02*
X121869202Y-69977000D01*
D28*
X121869202Y-69977000D02*
X123596400Y-69977000D01*
D27*
X123596400Y-69977000D02*
X123555760Y-69936360D01*
D29*
X140421360Y-55285640D02*
X145669000Y-50038000D01*
X145669000Y-45720000D02*
X145669000Y-50038000D01*
X128564640Y-70906640D02*
X136692640Y-62778640D01*
X136692640Y-62773560D02*
X140421360Y-59044840D01*
X140421360Y-59044840D02*
X140421360Y-55285640D01*
D27*
X136692640Y-62778640D02*
X136692640Y-62773560D01*
D28*
X124627640Y-70998080D02*
X128473200Y-70998080D01*
D29*
X133985000Y-58928000D02*
X133985000Y-56400700D01*
X133985000Y-60071000D02*
X133985000Y-58928000D01*
X138049000Y-52336700D02*
X133985000Y-56400700D01*
X138049000Y-45720000D02*
X138049000Y-52336700D01*
D31*
X138049000Y-44640500D02*
X137248900Y-43840400D01*
D28*
X137248900Y-43840400D02*
X129832100Y-43840400D01*
X129832100Y-43840400D02*
X129133600Y-44538900D01*
X129133600Y-44538900D02*
X129133600Y-47129700D01*
D27*
X129133600Y-47091600D02*
X129133600Y-47078900D01*
X129133600Y-47129700D02*
X129133600Y-47091600D01*
D31*
X138049000Y-45720000D02*
X138049000Y-44640500D01*
D28*
X80873600Y-44564300D02*
X80873600Y-47777400D01*
X82257900Y-43180000D02*
X80873600Y-44564300D01*
X123139200Y-43180000D02*
X82257900Y-43180000D01*
X124079000Y-44119800D02*
X123139200Y-43180000D01*
X124079000Y-46774100D02*
X124079000Y-44119800D01*
X125298200Y-47993300D02*
X124079000Y-46774100D01*
X128739900Y-47993300D02*
X125298200Y-47993300D01*
X129133600Y-47599600D02*
X128739900Y-47993300D01*
X129133600Y-47091600D02*
X129133600Y-47599600D01*
D27*
X80873600Y-57277000D02*
X82296000Y-58699400D01*
D29*
X82296000Y-58699400D02*
X82296000Y-60198000D01*
X82296000Y-60198000D02*
X81546700Y-60947300D01*
D27*
X72136000Y-60947300D02*
X69456300Y-60947300D01*
X69456300Y-60947300D02*
X69253100Y-61150500D01*
X69253100Y-61150500D02*
X69253100Y-71083100D01*
X69253100Y-71083100D02*
X70520000Y-72350000D01*
D29*
X82296000Y-58547000D02*
X79121000Y-55372000D01*
X79121000Y-55372000D02*
X79121000Y-49530000D01*
X79121000Y-49530000D02*
X80873600Y-47777400D01*
X82296000Y-58699400D02*
X82296000Y-58547000D01*
X72136000Y-60947300D02*
X81546700Y-60947300D01*
X130556000Y-63881000D02*
X133985000Y-60452000D01*
X133985000Y-60452000D02*
X133985000Y-60071000D01*
X130175000Y-63881000D02*
X130556000Y-63881000D01*
D28*
X131706620Y-87884000D02*
X131706620Y-84874100D01*
D27*
X131706620Y-88511380D02*
X131706620Y-87884000D01*
X131706620Y-84874100D02*
X131622800Y-84790280D01*
D29*
X92570300Y-83921600D02*
X91592400Y-83921600D01*
D28*
X108851700Y-84899500D02*
X107873800Y-83921600D01*
D29*
X107873800Y-83921600D02*
X92570300Y-83921600D01*
D28*
X108851700Y-85598000D02*
X108851700Y-84899500D01*
D29*
X77899900Y-69810000D02*
X70520000Y-69810000D01*
X79248000Y-71158100D02*
X77899900Y-69810000D01*
D27*
X91592400Y-83921600D02*
X91579700Y-83908900D01*
X108851700Y-85598000D02*
X108864400Y-85585300D01*
D28*
X108851700Y-87858600D02*
X108851700Y-85598000D01*
X109347000Y-88353900D02*
X108851700Y-87858600D01*
D27*
X122364500Y-90170000D02*
X111163100Y-90170000D01*
X111163100Y-90170000D02*
X109347000Y-88353900D01*
X131711700Y-88506300D02*
X131706620Y-88511380D01*
D29*
X135636000Y-60960000D02*
X135636000Y-58356500D01*
X135636000Y-58356500D02*
X143129000Y-50863500D01*
X143129000Y-50863500D02*
X143129000Y-45720000D01*
X129286000Y-67691000D02*
X135636000Y-61341000D01*
X135636000Y-61341000D02*
X135636000Y-60960000D01*
X131706620Y-89400380D02*
X130937000Y-90170000D01*
X130937000Y-90170000D02*
X111125000Y-90170000D01*
X111125000Y-90170000D02*
X109347000Y-88392000D01*
X109347000Y-88392000D02*
X109347000Y-88353900D01*
X131706620Y-87884000D02*
X131706620Y-89400380D01*
D27*
X97739200Y-69697600D02*
X97739200Y-69672200D01*
X97764600Y-69672200D02*
X97739200Y-69697600D01*
D29*
X98729800Y-69672200D02*
X97764600Y-69672200D01*
X98920300Y-69481700D02*
X98729800Y-69672200D01*
D27*
X140589000Y-46228000D02*
X140589000Y-45720000D01*
D29*
X134874000Y-60198000D02*
X134874000Y-58356500D01*
X129286000Y-66294000D02*
X134874000Y-60706000D01*
X134874000Y-60706000D02*
X134874000Y-60325000D01*
X140589000Y-52070000D02*
X134874000Y-57785000D01*
X134874000Y-57785000D02*
X134874000Y-58356500D01*
X140589000Y-45720000D02*
X140589000Y-52070000D01*
D28*
X107442000Y-75057000D02*
X106946700Y-75057000D01*
X111163100Y-71335900D02*
X107442000Y-75057000D01*
X111163100Y-64439100D02*
X111163100Y-71335900D01*
X113245200Y-62357000D02*
X111163100Y-64439100D01*
X116141504Y-62357000D02*
X113245200Y-62357000D01*
D27*
X122237504Y-68453000D02*
X116141504Y-62357000D01*
X123334400Y-68453000D02*
X122237504Y-68453000D01*
X97967800Y-69672200D02*
X97739200Y-69672200D01*
D29*
X97739200Y-69672200D02*
X95643700Y-69672200D01*
X77747500Y-67270000D02*
X70520000Y-67270000D01*
X82372200Y-71894700D02*
X77747500Y-67270000D01*
X93421200Y-71894700D02*
X82372200Y-71894700D01*
X95643700Y-69672200D02*
X93421200Y-71894700D01*
D28*
X126259400Y-66780600D02*
X124587000Y-68453000D01*
X124587000Y-68453000D02*
X123334400Y-68453000D01*
X126259400Y-65528000D02*
X126259400Y-66780600D01*
D27*
X114896900Y-63004700D02*
X114896900Y-63002160D01*
D28*
X115824000Y-63004700D02*
X114896900Y-63004700D01*
X121659650Y-68840350D02*
X115824000Y-63004700D01*
D29*
X127574040Y-66735960D02*
X127574040Y-60772040D01*
X128259840Y-53075840D02*
X128991360Y-53075840D01*
X127238760Y-54096920D02*
X128259840Y-53075840D01*
X127238760Y-60436760D02*
X127238760Y-54096920D01*
X127574040Y-60772040D02*
X127238760Y-60436760D01*
X128991360Y-53075840D02*
X130515360Y-53075840D01*
X130515360Y-53075840D02*
X132969000Y-50622200D01*
X132969000Y-50622200D02*
X132969000Y-45720000D01*
D27*
X132969000Y-45847000D02*
X132969000Y-45720000D01*
D34*
X126225300Y-68097400D02*
X126225300Y-68084700D01*
D28*
X125399800Y-68922900D02*
X126225300Y-68097400D01*
D34*
X125387100Y-68922900D02*
X125399800Y-68922900D01*
D29*
X126225300Y-68084700D02*
X127574040Y-66735960D01*
D27*
X114363500Y-64985900D02*
X113624360Y-65725040D01*
D28*
X111747300Y-67602100D02*
X111747300Y-71158100D01*
X113624360Y-65725040D02*
X111747300Y-67602100D01*
X92976700Y-69977000D02*
X92964000Y-69964300D01*
D29*
X92964000Y-69964300D02*
X88112600Y-69964300D01*
X82878300Y-64730000D02*
X70520000Y-64730000D01*
X88112600Y-69964300D02*
X82878300Y-64730000D01*
D27*
X114620040Y-65105280D02*
X114475260Y-64960500D01*
D28*
X113555780Y-64960500D02*
X113172240Y-64576960D01*
X113172240Y-64576960D02*
X113172240Y-63423800D01*
X113172240Y-63423800D02*
X113593880Y-63002160D01*
X113593880Y-63002160D02*
X114896900Y-63002160D01*
X114475260Y-64960500D02*
X113555780Y-64960500D01*
X114896900Y-63002160D02*
X115514120Y-63002160D01*
X114244120Y-65105280D02*
X113624360Y-65725040D01*
D27*
X114620040Y-65105280D02*
X114244120Y-65105280D01*
D28*
X108165900Y-75222100D02*
X108165900Y-75793600D01*
X110604300Y-72783700D02*
X108165900Y-75222100D01*
X108165900Y-75793600D02*
X108191300Y-75819000D01*
X111747300Y-71640700D02*
X110604300Y-72783700D01*
X111747300Y-71158100D02*
X111747300Y-71640700D01*
X121672350Y-68840350D02*
X122047000Y-69215000D01*
X122047000Y-69215000D02*
X125095000Y-69215000D01*
X125095000Y-69215000D02*
X125387100Y-68922900D01*
X121659650Y-68840350D02*
X121672350Y-68840350D01*
D27*
X123936760Y-58364120D02*
X123936760Y-58381900D01*
X123954540Y-58381900D02*
X123936760Y-58364120D01*
D28*
X125595380Y-58381900D02*
X123954540Y-58381900D01*
X126141480Y-57835800D02*
X125595380Y-58381900D01*
D29*
X82082000Y-62190000D02*
X70520000Y-62190000D01*
X83693000Y-60579000D02*
X82082000Y-62190000D01*
D28*
X100609400Y-50393600D02*
X93985080Y-50393600D01*
X101071680Y-50855880D02*
X100609400Y-50393600D01*
D27*
X104305100Y-55841900D02*
X102152450Y-53689250D01*
D28*
X123936760Y-58381900D02*
X117081300Y-58381900D01*
X117081300Y-58381900D02*
X114541300Y-55841900D01*
X114541300Y-55841900D02*
X104305100Y-55841900D01*
D27*
X102152450Y-53689250D02*
X102133400Y-53670200D01*
D28*
X88031320Y-50393600D02*
X83693000Y-54731920D01*
D29*
X83693000Y-54731920D02*
X83693000Y-60579000D01*
D28*
X93985080Y-50393600D02*
X88031320Y-50393600D01*
X101574600Y-53111400D02*
X101574600Y-51358800D01*
X101574600Y-51358800D02*
X101071680Y-50855880D01*
D27*
X102152450Y-53689250D02*
X101574600Y-53111400D01*
X110617000Y-54292500D02*
X114046000Y-50863500D01*
D29*
X116649500Y-49466500D02*
X117348000Y-48768000D01*
D28*
X117348000Y-48768000D02*
X129032000Y-48768000D01*
X129032000Y-48768000D02*
X130429000Y-47371000D01*
X130429000Y-47371000D02*
X130429000Y-45720000D01*
D29*
X114046000Y-50863500D02*
X110617000Y-54292500D01*
X114109500Y-50863500D02*
X114046000Y-50863500D01*
D28*
X128656080Y-83423760D02*
X129915920Y-83423760D01*
X129915920Y-83423760D02*
X130266440Y-83073240D01*
X127980440Y-83423760D02*
X128656080Y-83423760D01*
X127980440Y-83423760D02*
X122107960Y-83423760D01*
X118440200Y-79756000D02*
X122072400Y-83388200D01*
D27*
X122107960Y-83423760D02*
X122072400Y-83388200D01*
D28*
X130266440Y-83073240D02*
X132323840Y-83073240D01*
X132323840Y-83073240D02*
X132588000Y-83337400D01*
X129108200Y-43103800D02*
X127889000Y-44323000D01*
D31*
X127889000Y-44323000D02*
X127889000Y-45720000D01*
D28*
X144399000Y-47942500D02*
X144399000Y-44958000D01*
X144399000Y-44958000D02*
X144399000Y-44005500D01*
X144399000Y-44005500D02*
X143497300Y-43103800D01*
X143497300Y-43103800D02*
X129108200Y-43103800D01*
D27*
X111887000Y-76377800D02*
X112080040Y-76570840D01*
D28*
X113080800Y-76377800D02*
X116459000Y-79756000D01*
X116459000Y-79756000D02*
X118440200Y-79756000D01*
X111887000Y-76377800D02*
X113080800Y-76377800D01*
D29*
X115189000Y-53086000D02*
X115189000Y-45720000D01*
X119126000Y-57023000D02*
X115189000Y-53086000D01*
X120904000Y-57023000D02*
X119126000Y-57023000D01*
X121285000Y-57404000D02*
X120904000Y-57023000D01*
X79629000Y-43738800D02*
X80949800Y-42418000D01*
X80949800Y-42418000D02*
X84023200Y-42418000D01*
X145288000Y-42418000D02*
X84023200Y-42418000D01*
X146939000Y-44069000D02*
X145288000Y-42418000D01*
D28*
X146939000Y-47244000D02*
X146939000Y-44069000D01*
D29*
X143916400Y-53263800D02*
X146939000Y-50241200D01*
D31*
X79629000Y-45720000D02*
X79629000Y-43738800D01*
D29*
X146939000Y-50241200D02*
X146939000Y-47244000D01*
X77793850Y-42551350D02*
X78689200Y-41656000D01*
X77089000Y-43256200D02*
X77793850Y-42551350D01*
X147269200Y-41656000D02*
X78689200Y-41656000D01*
X149479000Y-43865800D02*
X147269200Y-41656000D01*
D28*
X149479000Y-47244000D02*
X149479000Y-43865800D01*
D29*
X145110200Y-53924200D02*
X149479000Y-49555400D01*
X77089000Y-45720000D02*
X77089000Y-43256200D01*
X149479000Y-49555400D02*
X149479000Y-47244000D01*
D27*
X116332000Y-69596000D02*
X117284500Y-68643500D01*
X117284500Y-68643500D02*
X118173500Y-68643500D01*
X118173500Y-68643500D02*
X120777000Y-71247000D01*
D28*
X120777000Y-71247000D02*
X123063000Y-71247000D01*
X123063000Y-71247000D02*
X126365000Y-74549000D01*
X130429000Y-75438000D02*
X133540500Y-75438000D01*
X133540500Y-75438000D02*
X134366000Y-76263500D01*
D27*
X134366000Y-76263500D02*
X134366000Y-77216000D01*
D29*
X134366000Y-75882500D02*
X135001000Y-75247500D01*
X135001000Y-75247500D02*
X138747500Y-75247500D01*
X138747500Y-75247500D02*
X139446000Y-75946000D01*
X139446000Y-75946000D02*
X139446000Y-77216000D01*
X134366000Y-77216000D02*
X134366000Y-75882500D01*
D28*
X129540000Y-74549000D02*
X130429000Y-75438000D01*
X126365000Y-74549000D02*
X129540000Y-74549000D01*
D30*
X177990500Y-77914500D02*
X176339500Y-76263500D01*
X176339500Y-76263500D02*
X154876500Y-76263500D01*
X154876500Y-76263500D02*
X151384000Y-79756000D01*
X151384000Y-79756000D02*
X139446000Y-79756000D01*
X177419000Y-83502500D02*
X177990500Y-82931000D01*
X177990500Y-82931000D02*
X177990500Y-79248000D01*
X177990500Y-79248000D02*
X177990500Y-77914500D01*
D28*
X117729000Y-69532500D02*
X120332500Y-72136000D01*
X120332500Y-72136000D02*
X122999500Y-72136000D01*
X122999500Y-72136000D02*
X126047500Y-75184000D01*
X128854200Y-75184000D02*
X130886200Y-77216000D01*
X130886200Y-77216000D02*
X131826000Y-77216000D01*
X126047500Y-75184000D02*
X128854200Y-75184000D01*
D29*
X175641000Y-77724000D02*
X175514000Y-77851000D01*
D30*
X175514000Y-77851000D02*
X169608500Y-77851000D01*
X158115000Y-77851000D02*
X154813000Y-81153000D01*
X169608500Y-77851000D02*
X158115000Y-77851000D01*
X136906000Y-80772000D02*
X138049000Y-81915000D01*
X138049000Y-81915000D02*
X154051000Y-81915000D01*
X154051000Y-81915000D02*
X154813000Y-81153000D01*
X136906000Y-79756000D02*
X136906000Y-80772000D01*
D27*
X108648500Y-78994000D02*
X108597700Y-78994000D01*
D28*
X112001300Y-78994000D02*
X108648500Y-78994000D01*
X114744500Y-81737200D02*
X112001300Y-78994000D01*
X107454700Y-78994000D02*
X106768900Y-78308200D01*
X108648500Y-78994000D02*
X107454700Y-78994000D01*
D34*
G36*
X97536000Y-76136564D02*
X96177164Y-77495400D01*
X82905600Y-77495400D01*
X82565395Y-77563070D01*
X82276982Y-77755782D01*
X76460382Y-83572382D01*
X76267671Y-83860794D01*
X76200000Y-84201000D01*
X76200000Y-85001546D01*
X76029330Y-85115585D01*
X75819000Y-85430365D01*
X75608670Y-85115585D01*
X75122489Y-84790729D01*
X74549000Y-84676655D01*
X73975511Y-84790729D01*
X73489330Y-85115585D01*
X73279000Y-85430365D01*
X73068670Y-85115585D01*
X72582489Y-84790729D01*
X72009000Y-84676655D01*
X71435511Y-84790729D01*
X70949330Y-85115585D01*
X70739000Y-85430365D01*
X70528670Y-85115585D01*
X70042489Y-84790729D01*
X69469000Y-84676655D01*
X68895511Y-84790729D01*
X68409330Y-85115585D01*
X68202539Y-85425069D01*
X67831036Y-85009268D01*
X67303791Y-84755291D01*
X67288026Y-84752642D01*
X67056000Y-84873783D01*
X67056000Y-86233000D01*
X67076000Y-86233000D01*
X67076000Y-86487000D01*
X67056000Y-86487000D01*
X67056000Y-86507000D01*
X66802000Y-86507000D01*
X66802000Y-86487000D01*
X66802000Y-86233000D01*
X66802000Y-84873783D01*
X66569974Y-84752642D01*
X66554209Y-84755291D01*
X66026964Y-85009268D01*
X65637046Y-85445680D01*
X65443816Y-85998087D01*
X65588076Y-86233000D01*
X66802000Y-86233000D01*
X66802000Y-86487000D01*
X65588076Y-86487000D01*
X65474912Y-86671276D01*
X64643000Y-85839364D01*
X64643000Y-45529436D01*
X65468436Y-44704000D01*
X65727893Y-44704000D01*
X65637046Y-44805680D01*
X65443816Y-45358087D01*
X65588076Y-45593000D01*
X66802000Y-45593000D01*
X66802000Y-45573000D01*
X67056000Y-45573000D01*
X67056000Y-45593000D01*
X67076000Y-45593000D01*
X67076000Y-45847000D01*
X67056000Y-45847000D01*
X67056000Y-47206217D01*
X67288026Y-47327358D01*
X67303791Y-47324709D01*
X67831036Y-47070732D01*
X68202539Y-46654930D01*
X68409330Y-46964415D01*
X68895511Y-47289271D01*
X69469000Y-47403345D01*
X70042489Y-47289271D01*
X70528670Y-46964415D01*
X70739000Y-46649634D01*
X70949330Y-46964415D01*
X71056500Y-47036023D01*
X71056500Y-49149000D01*
X71129005Y-49513506D01*
X71335481Y-49822519D01*
X72072500Y-50559538D01*
X72072500Y-58215962D01*
X71590962Y-58697500D01*
X71530534Y-58697500D01*
X71307328Y-58473904D01*
X71081257Y-58380030D01*
X71305274Y-58287469D01*
X71696096Y-57897328D01*
X71907869Y-57387324D01*
X71908351Y-56835099D01*
X71697469Y-56324726D01*
X71307328Y-55933904D01*
X71081257Y-55840030D01*
X71305274Y-55747469D01*
X71696096Y-55357328D01*
X71907869Y-54847324D01*
X71908351Y-54295099D01*
X71697469Y-53784726D01*
X71307328Y-53393904D01*
X70797324Y-53182131D01*
X70245099Y-53181649D01*
X69734726Y-53392531D01*
X69343904Y-53782672D01*
X69256617Y-53992880D01*
X69195035Y-53844207D01*
X68953772Y-53775834D01*
X68774166Y-53955439D01*
X68774166Y-53596228D01*
X68705793Y-53354965D01*
X68185572Y-53169704D01*
X67634054Y-53197627D01*
X67254207Y-53354965D01*
X67185834Y-53596228D01*
X67980000Y-54390395D01*
X68774166Y-53596228D01*
X68774166Y-53955439D01*
X68159605Y-54570000D01*
X68953772Y-55364166D01*
X69195035Y-55295793D01*
X69251935Y-55136015D01*
X69342531Y-55355274D01*
X69732672Y-55746096D01*
X69958742Y-55839969D01*
X69734726Y-55932531D01*
X69343904Y-56322672D01*
X69256617Y-56532880D01*
X69195035Y-56384207D01*
X68953772Y-56315834D01*
X68774166Y-56495439D01*
X68774166Y-56136228D01*
X68705793Y-55894965D01*
X68563088Y-55844145D01*
X68705793Y-55785035D01*
X68774166Y-55543772D01*
X67980000Y-54749605D01*
X67800395Y-54929210D01*
X67800395Y-54570000D01*
X67006228Y-53775834D01*
X66802000Y-53833711D01*
X66802000Y-47206217D01*
X66802000Y-45847000D01*
X65588076Y-45847000D01*
X65443816Y-46081913D01*
X65637046Y-46634320D01*
X66026964Y-47070732D01*
X66554209Y-47324709D01*
X66569974Y-47327358D01*
X66802000Y-47206217D01*
X66802000Y-53833711D01*
X66764965Y-53844207D01*
X66579704Y-54364428D01*
X66607627Y-54915946D01*
X66764965Y-55295793D01*
X67006228Y-55364166D01*
X67800395Y-54570000D01*
X67800395Y-54929210D01*
X67185834Y-55543772D01*
X67254207Y-55785035D01*
X67396911Y-55835854D01*
X67254207Y-55894965D01*
X67185834Y-56136228D01*
X67980000Y-56930395D01*
X68774166Y-56136228D01*
X68774166Y-56495439D01*
X68159605Y-57110000D01*
X68953772Y-57904166D01*
X69195035Y-57835793D01*
X69251935Y-57676015D01*
X69342531Y-57895274D01*
X69732672Y-58286096D01*
X69958742Y-58379969D01*
X69734726Y-58472531D01*
X69343904Y-58862672D01*
X69256617Y-59072880D01*
X69195035Y-58924207D01*
X68953772Y-58855834D01*
X68774166Y-59035439D01*
X68774166Y-58676228D01*
X68705793Y-58434965D01*
X68563088Y-58384145D01*
X68705793Y-58325035D01*
X68774166Y-58083772D01*
X67980000Y-57289605D01*
X67800395Y-57469210D01*
X67800395Y-57110000D01*
X67006228Y-56315834D01*
X66764965Y-56384207D01*
X66579704Y-56904428D01*
X66607627Y-57455946D01*
X66764965Y-57835793D01*
X67006228Y-57904166D01*
X67800395Y-57110000D01*
X67800395Y-57469210D01*
X67185834Y-58083772D01*
X67254207Y-58325035D01*
X67396911Y-58375854D01*
X67254207Y-58434965D01*
X67185834Y-58676228D01*
X67980000Y-59470395D01*
X68774166Y-58676228D01*
X68774166Y-59035439D01*
X68159605Y-59650000D01*
X68173747Y-59664142D01*
X67994142Y-59843747D01*
X67980000Y-59829605D01*
X67800395Y-60009210D01*
X67800395Y-59650000D01*
X67006228Y-58855834D01*
X66764965Y-58924207D01*
X66579704Y-59444428D01*
X66607627Y-59995946D01*
X66764965Y-60375793D01*
X67006228Y-60444166D01*
X67800395Y-59650000D01*
X67800395Y-60009210D01*
X67185834Y-60623772D01*
X67254207Y-60865035D01*
X67396911Y-60915854D01*
X67254207Y-60974965D01*
X67185834Y-61216228D01*
X67980000Y-62010395D01*
X67994142Y-61996252D01*
X68173747Y-62175857D01*
X68159605Y-62190000D01*
X68173747Y-62204142D01*
X67994142Y-62383747D01*
X67980000Y-62369605D01*
X67800395Y-62549210D01*
X67800395Y-62190000D01*
X67006228Y-61395834D01*
X66764965Y-61464207D01*
X66579704Y-61984428D01*
X66607627Y-62535946D01*
X66764965Y-62915793D01*
X67006228Y-62984166D01*
X67800395Y-62190000D01*
X67800395Y-62549210D01*
X67185834Y-63163772D01*
X67254207Y-63405035D01*
X67396911Y-63455854D01*
X67254207Y-63514965D01*
X67185834Y-63756228D01*
X67980000Y-64550395D01*
X67994142Y-64536252D01*
X68173747Y-64715857D01*
X68159605Y-64730000D01*
X68173747Y-64744142D01*
X67994142Y-64923747D01*
X67980000Y-64909605D01*
X67800395Y-65089210D01*
X67800395Y-64730000D01*
X67006228Y-63935834D01*
X66764965Y-64004207D01*
X66579704Y-64524428D01*
X66607627Y-65075946D01*
X66764965Y-65455793D01*
X67006228Y-65524166D01*
X67800395Y-64730000D01*
X67800395Y-65089210D01*
X67185834Y-65703772D01*
X67254207Y-65945035D01*
X67396911Y-65995854D01*
X67254207Y-66054965D01*
X67185834Y-66296228D01*
X67980000Y-67090395D01*
X67994142Y-67076252D01*
X68173747Y-67255857D01*
X68159605Y-67270000D01*
X68173747Y-67284142D01*
X67994142Y-67463747D01*
X67980000Y-67449605D01*
X67800395Y-67629210D01*
X67800395Y-67270000D01*
X67006228Y-66475834D01*
X66764965Y-66544207D01*
X66579704Y-67064428D01*
X66607627Y-67615946D01*
X66764965Y-67995793D01*
X67006228Y-68064166D01*
X67800395Y-67270000D01*
X67800395Y-67629210D01*
X67185834Y-68243772D01*
X67254207Y-68485035D01*
X67396911Y-68535854D01*
X67254207Y-68594965D01*
X67185834Y-68836228D01*
X67980000Y-69630395D01*
X67994142Y-69616252D01*
X68173747Y-69795857D01*
X68159605Y-69810000D01*
X68173747Y-69824142D01*
X67994142Y-70003747D01*
X67980000Y-69989605D01*
X67800395Y-70169210D01*
X67800395Y-69810000D01*
X67006228Y-69015834D01*
X66764965Y-69084207D01*
X66579704Y-69604428D01*
X66607627Y-70155946D01*
X66764965Y-70535793D01*
X67006228Y-70604166D01*
X67800395Y-69810000D01*
X67800395Y-70169210D01*
X67185834Y-70783772D01*
X67254207Y-71025035D01*
X67396911Y-71075854D01*
X67254207Y-71134965D01*
X67185834Y-71376228D01*
X67980000Y-72170395D01*
X67994142Y-72156252D01*
X68173747Y-72335857D01*
X68159605Y-72350000D01*
X68953772Y-73144166D01*
X69195035Y-73075793D01*
X69251935Y-72916015D01*
X69342531Y-73135274D01*
X69732672Y-73526096D01*
X69958742Y-73619969D01*
X69734726Y-73712531D01*
X69343904Y-74102672D01*
X69256617Y-74312880D01*
X69195035Y-74164207D01*
X68953772Y-74095834D01*
X68774166Y-74275439D01*
X68774166Y-73916228D01*
X68705793Y-73674965D01*
X68563088Y-73624145D01*
X68705793Y-73565035D01*
X68774166Y-73323772D01*
X67980000Y-72529605D01*
X67800395Y-72709210D01*
X67800395Y-72350000D01*
X67006228Y-71555834D01*
X66764965Y-71624207D01*
X66579704Y-72144428D01*
X66607627Y-72695946D01*
X66764965Y-73075793D01*
X67006228Y-73144166D01*
X67800395Y-72350000D01*
X67800395Y-72709210D01*
X67185834Y-73323772D01*
X67254207Y-73565035D01*
X67396911Y-73615854D01*
X67254207Y-73674965D01*
X67185834Y-73916228D01*
X67980000Y-74710395D01*
X68774166Y-73916228D01*
X68774166Y-74275439D01*
X68159605Y-74890000D01*
X68953772Y-75684166D01*
X69195035Y-75615793D01*
X69251935Y-75456015D01*
X69342531Y-75675274D01*
X69732672Y-76066096D01*
X69958742Y-76159969D01*
X69734726Y-76252531D01*
X69343904Y-76642672D01*
X69250030Y-76868742D01*
X69157469Y-76644726D01*
X68767328Y-76253904D01*
X68557119Y-76166617D01*
X68705793Y-76105035D01*
X68774166Y-75863772D01*
X67980000Y-75069605D01*
X67800395Y-75249210D01*
X67800395Y-74890000D01*
X67006228Y-74095834D01*
X66764965Y-74164207D01*
X66579704Y-74684428D01*
X66607627Y-75235946D01*
X66764965Y-75615793D01*
X67006228Y-75684166D01*
X67800395Y-74890000D01*
X67800395Y-75249210D01*
X67185834Y-75863772D01*
X67254207Y-76105035D01*
X67413984Y-76161935D01*
X67194726Y-76252531D01*
X66803904Y-76642672D01*
X66592131Y-77152676D01*
X66591649Y-77704901D01*
X66802531Y-78215274D01*
X67192672Y-78606096D01*
X67702676Y-78817869D01*
X68254901Y-78818351D01*
X68765274Y-78607469D01*
X69156096Y-78217328D01*
X69249969Y-77991257D01*
X69342531Y-78215274D01*
X69732672Y-78606096D01*
X70242676Y-78817869D01*
X70794901Y-78818351D01*
X71305274Y-78607469D01*
X71696096Y-78217328D01*
X71907869Y-77707324D01*
X71908351Y-77155099D01*
X71697469Y-76644726D01*
X71307328Y-76253904D01*
X71081257Y-76160030D01*
X71305274Y-76067469D01*
X71594246Y-75779000D01*
X78386300Y-75779000D01*
X78440595Y-75768200D01*
X93840300Y-75768200D01*
X94180505Y-75700529D01*
X94180506Y-75700529D01*
X94468918Y-75507818D01*
X97536000Y-72440736D01*
X97536000Y-76136564D01*
X97536000Y-76136564D01*
G37*
X97536000Y-76136564D02*
X96177164Y-77495400D01*
X82905600Y-77495400D01*
X82565395Y-77563070D01*
X82276982Y-77755782D01*
X76460382Y-83572382D01*
X76267671Y-83860794D01*
X76200000Y-84201000D01*
X76200000Y-85001546D01*
X76029330Y-85115585D01*
X75819000Y-85430365D01*
X75608670Y-85115585D01*
X75122489Y-84790729D01*
X74549000Y-84676655D01*
X73975511Y-84790729D01*
X73489330Y-85115585D01*
X73279000Y-85430365D01*
X73068670Y-85115585D01*
X72582489Y-84790729D01*
X72009000Y-84676655D01*
X71435511Y-84790729D01*
X70949330Y-85115585D01*
X70739000Y-85430365D01*
X70528670Y-85115585D01*
X70042489Y-84790729D01*
X69469000Y-84676655D01*
X68895511Y-84790729D01*
X68409330Y-85115585D01*
X68202539Y-85425069D01*
X67831036Y-85009268D01*
X67303791Y-84755291D01*
X67288026Y-84752642D01*
X67056000Y-84873783D01*
X67056000Y-86233000D01*
X67076000Y-86233000D01*
X67076000Y-86487000D01*
X67056000Y-86487000D01*
X67056000Y-86507000D01*
X66802000Y-86507000D01*
X66802000Y-86487000D01*
X66802000Y-86233000D01*
X66802000Y-84873783D01*
X66569974Y-84752642D01*
X66554209Y-84755291D01*
X66026964Y-85009268D01*
X65637046Y-85445680D01*
X65443816Y-85998087D01*
X65588076Y-86233000D01*
X66802000Y-86233000D01*
X66802000Y-86487000D01*
X65588076Y-86487000D01*
X65474912Y-86671276D01*
X64643000Y-85839364D01*
X64643000Y-45529436D01*
X65468436Y-44704000D01*
X65727893Y-44704000D01*
X65637046Y-44805680D01*
X65443816Y-45358087D01*
X65588076Y-45593000D01*
X66802000Y-45593000D01*
X66802000Y-45573000D01*
X67056000Y-45573000D01*
X67056000Y-45593000D01*
X67076000Y-45593000D01*
X67076000Y-45847000D01*
X67056000Y-45847000D01*
X67056000Y-47206217D01*
X67288026Y-47327358D01*
X67303791Y-47324709D01*
X67831036Y-47070732D01*
X68202539Y-46654930D01*
X68409330Y-46964415D01*
X68895511Y-47289271D01*
X69469000Y-47403345D01*
X70042489Y-47289271D01*
X70528670Y-46964415D01*
X70739000Y-46649634D01*
X70949330Y-46964415D01*
X71056500Y-47036023D01*
X71056500Y-49149000D01*
X71129005Y-49513506D01*
X71335481Y-49822519D01*
X72072500Y-50559538D01*
X72072500Y-58215962D01*
X71590962Y-58697500D01*
X71530534Y-58697500D01*
X71307328Y-58473904D01*
X71081257Y-58380030D01*
X71305274Y-58287469D01*
X71696096Y-57897328D01*
X71907869Y-57387324D01*
X71908351Y-56835099D01*
X71697469Y-56324726D01*
X71307328Y-55933904D01*
X71081257Y-55840030D01*
X71305274Y-55747469D01*
X71696096Y-55357328D01*
X71907869Y-54847324D01*
X71908351Y-54295099D01*
X71697469Y-53784726D01*
X71307328Y-53393904D01*
X70797324Y-53182131D01*
X70245099Y-53181649D01*
X69734726Y-53392531D01*
X69343904Y-53782672D01*
X69256617Y-53992880D01*
X69195035Y-53844207D01*
X68953772Y-53775834D01*
X68774166Y-53955439D01*
X68774166Y-53596228D01*
X68705793Y-53354965D01*
X68185572Y-53169704D01*
X67634054Y-53197627D01*
X67254207Y-53354965D01*
X67185834Y-53596228D01*
X67980000Y-54390395D01*
X68774166Y-53596228D01*
X68774166Y-53955439D01*
X68159605Y-54570000D01*
X68953772Y-55364166D01*
X69195035Y-55295793D01*
X69251935Y-55136015D01*
X69342531Y-55355274D01*
X69732672Y-55746096D01*
X69958742Y-55839969D01*
X69734726Y-55932531D01*
X69343904Y-56322672D01*
X69256617Y-56532880D01*
X69195035Y-56384207D01*
X68953772Y-56315834D01*
X68774166Y-56495439D01*
X68774166Y-56136228D01*
X68705793Y-55894965D01*
X68563088Y-55844145D01*
X68705793Y-55785035D01*
X68774166Y-55543772D01*
X67980000Y-54749605D01*
X67800395Y-54929210D01*
X67800395Y-54570000D01*
X67006228Y-53775834D01*
X66802000Y-53833711D01*
X66802000Y-47206217D01*
X66802000Y-45847000D01*
X65588076Y-45847000D01*
X65443816Y-46081913D01*
X65637046Y-46634320D01*
X66026964Y-47070732D01*
X66554209Y-47324709D01*
X66569974Y-47327358D01*
X66802000Y-47206217D01*
X66802000Y-53833711D01*
X66764965Y-53844207D01*
X66579704Y-54364428D01*
X66607627Y-54915946D01*
X66764965Y-55295793D01*
X67006228Y-55364166D01*
X67800395Y-54570000D01*
X67800395Y-54929210D01*
X67185834Y-55543772D01*
X67254207Y-55785035D01*
X67396911Y-55835854D01*
X67254207Y-55894965D01*
X67185834Y-56136228D01*
X67980000Y-56930395D01*
X68774166Y-56136228D01*
X68774166Y-56495439D01*
X68159605Y-57110000D01*
X68953772Y-57904166D01*
X69195035Y-57835793D01*
X69251935Y-57676015D01*
X69342531Y-57895274D01*
X69732672Y-58286096D01*
X69958742Y-58379969D01*
X69734726Y-58472531D01*
X69343904Y-58862672D01*
X69256617Y-59072880D01*
X69195035Y-58924207D01*
X68953772Y-58855834D01*
X68774166Y-59035439D01*
X68774166Y-58676228D01*
X68705793Y-58434965D01*
X68563088Y-58384145D01*
X68705793Y-58325035D01*
X68774166Y-58083772D01*
X67980000Y-57289605D01*
X67800395Y-57469210D01*
X67800395Y-57110000D01*
X67006228Y-56315834D01*
X66764965Y-56384207D01*
X66579704Y-56904428D01*
X66607627Y-57455946D01*
X66764965Y-57835793D01*
X67006228Y-57904166D01*
X67800395Y-57110000D01*
X67800395Y-57469210D01*
X67185834Y-58083772D01*
X67254207Y-58325035D01*
X67396911Y-58375854D01*
X67254207Y-58434965D01*
X67185834Y-58676228D01*
X67980000Y-59470395D01*
X68774166Y-58676228D01*
X68774166Y-59035439D01*
X68159605Y-59650000D01*
X68173747Y-59664142D01*
X67994142Y-59843747D01*
X67980000Y-59829605D01*
X67800395Y-60009210D01*
X67800395Y-59650000D01*
X67006228Y-58855834D01*
X66764965Y-58924207D01*
X66579704Y-59444428D01*
X66607627Y-59995946D01*
X66764965Y-60375793D01*
X67006228Y-60444166D01*
X67800395Y-59650000D01*
X67800395Y-60009210D01*
X67185834Y-60623772D01*
X67254207Y-60865035D01*
X67396911Y-60915854D01*
X67254207Y-60974965D01*
X67185834Y-61216228D01*
X67980000Y-62010395D01*
X67994142Y-61996252D01*
X68173747Y-62175857D01*
X68159605Y-62190000D01*
X68173747Y-62204142D01*
X67994142Y-62383747D01*
X67980000Y-62369605D01*
X67800395Y-62549210D01*
X67800395Y-62190000D01*
X67006228Y-61395834D01*
X66764965Y-61464207D01*
X66579704Y-61984428D01*
X66607627Y-62535946D01*
X66764965Y-62915793D01*
X67006228Y-62984166D01*
X67800395Y-62190000D01*
X67800395Y-62549210D01*
X67185834Y-63163772D01*
X67254207Y-63405035D01*
X67396911Y-63455854D01*
X67254207Y-63514965D01*
X67185834Y-63756228D01*
X67980000Y-64550395D01*
X67994142Y-64536252D01*
X68173747Y-64715857D01*
X68159605Y-64730000D01*
X68173747Y-64744142D01*
X67994142Y-64923747D01*
X67980000Y-64909605D01*
X67800395Y-65089210D01*
X67800395Y-64730000D01*
X67006228Y-63935834D01*
X66764965Y-64004207D01*
X66579704Y-64524428D01*
X66607627Y-65075946D01*
X66764965Y-65455793D01*
X67006228Y-65524166D01*
X67800395Y-64730000D01*
X67800395Y-65089210D01*
X67185834Y-65703772D01*
X67254207Y-65945035D01*
X67396911Y-65995854D01*
X67254207Y-66054965D01*
X67185834Y-66296228D01*
X67980000Y-67090395D01*
X67994142Y-67076252D01*
X68173747Y-67255857D01*
X68159605Y-67270000D01*
X68173747Y-67284142D01*
X67994142Y-67463747D01*
X67980000Y-67449605D01*
X67800395Y-67629210D01*
X67800395Y-67270000D01*
X67006228Y-66475834D01*
X66764965Y-66544207D01*
X66579704Y-67064428D01*
X66607627Y-67615946D01*
X66764965Y-67995793D01*
X67006228Y-68064166D01*
X67800395Y-67270000D01*
X67800395Y-67629210D01*
X67185834Y-68243772D01*
X67254207Y-68485035D01*
X67396911Y-68535854D01*
X67254207Y-68594965D01*
X67185834Y-68836228D01*
X67980000Y-69630395D01*
X67994142Y-69616252D01*
X68173747Y-69795857D01*
X68159605Y-69810000D01*
X68173747Y-69824142D01*
X67994142Y-70003747D01*
X67980000Y-69989605D01*
X67800395Y-70169210D01*
X67800395Y-69810000D01*
X67006228Y-69015834D01*
X66764965Y-69084207D01*
X66579704Y-69604428D01*
X66607627Y-70155946D01*
X66764965Y-70535793D01*
X67006228Y-70604166D01*
X67800395Y-69810000D01*
X67800395Y-70169210D01*
X67185834Y-70783772D01*
X67254207Y-71025035D01*
X67396911Y-71075854D01*
X67254207Y-71134965D01*
X67185834Y-71376228D01*
X67980000Y-72170395D01*
X67994142Y-72156252D01*
X68173747Y-72335857D01*
X68159605Y-72350000D01*
X68953772Y-73144166D01*
X69195035Y-73075793D01*
X69251935Y-72916015D01*
X69342531Y-73135274D01*
X69732672Y-73526096D01*
X69958742Y-73619969D01*
X69734726Y-73712531D01*
X69343904Y-74102672D01*
X69256617Y-74312880D01*
X69195035Y-74164207D01*
X68953772Y-74095834D01*
X68774166Y-74275439D01*
X68774166Y-73916228D01*
X68705793Y-73674965D01*
X68563088Y-73624145D01*
X68705793Y-73565035D01*
X68774166Y-73323772D01*
X67980000Y-72529605D01*
X67800395Y-72709210D01*
X67800395Y-72350000D01*
X67006228Y-71555834D01*
X66764965Y-71624207D01*
X66579704Y-72144428D01*
X66607627Y-72695946D01*
X66764965Y-73075793D01*
X67006228Y-73144166D01*
X67800395Y-72350000D01*
X67800395Y-72709210D01*
X67185834Y-73323772D01*
X67254207Y-73565035D01*
X67396911Y-73615854D01*
X67254207Y-73674965D01*
X67185834Y-73916228D01*
X67980000Y-74710395D01*
X68774166Y-73916228D01*
X68774166Y-74275439D01*
X68159605Y-74890000D01*
X68953772Y-75684166D01*
X69195035Y-75615793D01*
X69251935Y-75456015D01*
X69342531Y-75675274D01*
X69732672Y-76066096D01*
X69958742Y-76159969D01*
X69734726Y-76252531D01*
X69343904Y-76642672D01*
X69250030Y-76868742D01*
X69157469Y-76644726D01*
X68767328Y-76253904D01*
X68557119Y-76166617D01*
X68705793Y-76105035D01*
X68774166Y-75863772D01*
X67980000Y-75069605D01*
X67800395Y-75249210D01*
X67800395Y-74890000D01*
X67006228Y-74095834D01*
X66764965Y-74164207D01*
X66579704Y-74684428D01*
X66607627Y-75235946D01*
X66764965Y-75615793D01*
X67006228Y-75684166D01*
X67800395Y-74890000D01*
X67800395Y-75249210D01*
X67185834Y-75863772D01*
X67254207Y-76105035D01*
X67413984Y-76161935D01*
X67194726Y-76252531D01*
X66803904Y-76642672D01*
X66592131Y-77152676D01*
X66591649Y-77704901D01*
X66802531Y-78215274D01*
X67192672Y-78606096D01*
X67702676Y-78817869D01*
X68254901Y-78818351D01*
X68765274Y-78607469D01*
X69156096Y-78217328D01*
X69249969Y-77991257D01*
X69342531Y-78215274D01*
X69732672Y-78606096D01*
X70242676Y-78817869D01*
X70794901Y-78818351D01*
X71305274Y-78607469D01*
X71696096Y-78217328D01*
X71907869Y-77707324D01*
X71908351Y-77155099D01*
X71697469Y-76644726D01*
X71307328Y-76253904D01*
X71081257Y-76160030D01*
X71305274Y-76067469D01*
X71594246Y-75779000D01*
X78386300Y-75779000D01*
X78440595Y-75768200D01*
X93840300Y-75768200D01*
X94180505Y-75700529D01*
X94180506Y-75700529D01*
X94468918Y-75507818D01*
X97536000Y-72440736D01*
X97536000Y-76136564D01*
G36*
X100735675Y-60386187D02*
X100607394Y-60439193D01*
X100287835Y-60758195D01*
X100114677Y-61175204D01*
X100114585Y-61279618D01*
X97193164Y-64201040D01*
X90329956Y-64201040D01*
X86174041Y-60045125D01*
X86174397Y-59637945D01*
X86001967Y-59220634D01*
X85682965Y-58901075D01*
X85265956Y-58727917D01*
X84814425Y-58727523D01*
X84582000Y-58823559D01*
X84582000Y-55010354D01*
X88373254Y-51219100D01*
X89793763Y-51219100D01*
X89741317Y-51345404D01*
X89740923Y-51796935D01*
X89913353Y-52214246D01*
X90050620Y-52351752D01*
X90050620Y-52974240D01*
X90113457Y-53290146D01*
X90292403Y-53557957D01*
X93081320Y-56346873D01*
X93081323Y-56346877D01*
X93349134Y-56525822D01*
X93349135Y-56525823D01*
X93665040Y-56588660D01*
X97676666Y-56588660D01*
X97726500Y-56638493D01*
X97726500Y-57459880D01*
X97789337Y-57775786D01*
X97968283Y-58043597D01*
X98289486Y-58364799D01*
X98304833Y-58387767D01*
X98675673Y-58758607D01*
X100076484Y-60159417D01*
X100344295Y-60338363D01*
X100660200Y-60401201D01*
X100735675Y-60386187D01*
X100735675Y-60386187D01*
G37*
X100735675Y-60386187D02*
X100607394Y-60439193D01*
X100287835Y-60758195D01*
X100114677Y-61175204D01*
X100114585Y-61279618D01*
X97193164Y-64201040D01*
X90329956Y-64201040D01*
X86174041Y-60045125D01*
X86174397Y-59637945D01*
X86001967Y-59220634D01*
X85682965Y-58901075D01*
X85265956Y-58727917D01*
X84814425Y-58727523D01*
X84582000Y-58823559D01*
X84582000Y-55010354D01*
X88373254Y-51219100D01*
X89793763Y-51219100D01*
X89741317Y-51345404D01*
X89740923Y-51796935D01*
X89913353Y-52214246D01*
X90050620Y-52351752D01*
X90050620Y-52974240D01*
X90113457Y-53290146D01*
X90292403Y-53557957D01*
X93081320Y-56346873D01*
X93081323Y-56346877D01*
X93349134Y-56525822D01*
X93349135Y-56525823D01*
X93665040Y-56588660D01*
X97676666Y-56588660D01*
X97726500Y-56638493D01*
X97726500Y-57459880D01*
X97789337Y-57775786D01*
X97968283Y-58043597D01*
X98289486Y-58364799D01*
X98304833Y-58387767D01*
X98675673Y-58758607D01*
X100076484Y-60159417D01*
X100344295Y-60338363D01*
X100660200Y-60401201D01*
X100735675Y-60386187D01*
G36*
X114869364Y-75041569D02*
X114671855Y-75238735D01*
X114498697Y-75655744D01*
X114498303Y-76107275D01*
X114670733Y-76524586D01*
X114808000Y-76662092D01*
X114808000Y-76937566D01*
X113664517Y-75794083D01*
X113396706Y-75615137D01*
X113080800Y-75552300D01*
X112666672Y-75552300D01*
X112530765Y-75416155D01*
X112113756Y-75242997D01*
X111662225Y-75242603D01*
X111244914Y-75415033D01*
X111142409Y-75517359D01*
X111142592Y-75307681D01*
X111736174Y-74714100D01*
X114466066Y-74714100D01*
X114640843Y-74888877D01*
X114869364Y-75041569D01*
X114869364Y-75041569D01*
G37*
X114869364Y-75041569D02*
X114671855Y-75238735D01*
X114498697Y-75655744D01*
X114498303Y-76107275D01*
X114670733Y-76524586D01*
X114808000Y-76662092D01*
X114808000Y-76937566D01*
X113664517Y-75794083D01*
X113396706Y-75615137D01*
X113080800Y-75552300D01*
X112666672Y-75552300D01*
X112530765Y-75416155D01*
X112113756Y-75242997D01*
X111662225Y-75242603D01*
X111244914Y-75415033D01*
X111142409Y-75517359D01*
X111142592Y-75307681D01*
X111736174Y-74714100D01*
X114466066Y-74714100D01*
X114640843Y-74888877D01*
X114869364Y-75041569D01*
G36*
X117746781Y-80581500D02*
X117671595Y-80656555D01*
X117498437Y-81073564D01*
X117498187Y-81359378D01*
X116904466Y-81953100D01*
X115879312Y-81953100D01*
X115879697Y-81512425D01*
X115707267Y-81095114D01*
X115388265Y-80775555D01*
X114971256Y-80602397D01*
X114776960Y-80602227D01*
X112585017Y-78410283D01*
X112317206Y-78231337D01*
X112001300Y-78168500D01*
X109186615Y-78168500D01*
X109470445Y-77885165D01*
X109643603Y-77468156D01*
X109643772Y-77273860D01*
X109676713Y-77240919D01*
X109676717Y-77240917D01*
X109676717Y-77240916D01*
X109855663Y-76973105D01*
X109917581Y-76661822D01*
X110232175Y-76662097D01*
X110649486Y-76489667D01*
X110751990Y-76387340D01*
X110751803Y-76602575D01*
X110924233Y-77019886D01*
X111243235Y-77339445D01*
X111660244Y-77512603D01*
X112111775Y-77512997D01*
X112529086Y-77340567D01*
X112666592Y-77203300D01*
X112738866Y-77203300D01*
X115875280Y-80339713D01*
X115875283Y-80339717D01*
X116035824Y-80446986D01*
X116143094Y-80518663D01*
X116143095Y-80518663D01*
X116459000Y-80581500D01*
X117746781Y-80581500D01*
X117746781Y-80581500D01*
G37*
X117746781Y-80581500D02*
X117671595Y-80656555D01*
X117498437Y-81073564D01*
X117498187Y-81359378D01*
X116904466Y-81953100D01*
X115879312Y-81953100D01*
X115879697Y-81512425D01*
X115707267Y-81095114D01*
X115388265Y-80775555D01*
X114971256Y-80602397D01*
X114776960Y-80602227D01*
X112585017Y-78410283D01*
X112317206Y-78231337D01*
X112001300Y-78168500D01*
X109186615Y-78168500D01*
X109470445Y-77885165D01*
X109643603Y-77468156D01*
X109643772Y-77273860D01*
X109676713Y-77240919D01*
X109676717Y-77240917D01*
X109676717Y-77240916D01*
X109855663Y-76973105D01*
X109917581Y-76661822D01*
X110232175Y-76662097D01*
X110649486Y-76489667D01*
X110751990Y-76387340D01*
X110751803Y-76602575D01*
X110924233Y-77019886D01*
X111243235Y-77339445D01*
X111660244Y-77512603D01*
X112111775Y-77512997D01*
X112529086Y-77340567D01*
X112666592Y-77203300D01*
X112738866Y-77203300D01*
X115875280Y-80339713D01*
X115875283Y-80339717D01*
X116035824Y-80446986D01*
X116143094Y-80518663D01*
X116143095Y-80518663D01*
X116459000Y-80581500D01*
X117746781Y-80581500D01*
G36*
X117766748Y-51501002D02*
X117608000Y-51659750D01*
X117608000Y-52100309D01*
X117704673Y-52333698D01*
X117705955Y-52334980D01*
X117645623Y-52424360D01*
X117595560Y-52674000D01*
X117595560Y-53874000D01*
X117642537Y-54116123D01*
X117665500Y-54151079D01*
X117665500Y-54305264D01*
X116078000Y-52717764D01*
X116078000Y-51807945D01*
X116366275Y-51808197D01*
X116783586Y-51635767D01*
X116984703Y-51435000D01*
X117411500Y-51435000D01*
X117608000Y-51395913D01*
X117608000Y-51501002D01*
X117766748Y-51501002D01*
X117766748Y-51501002D01*
G37*
X117766748Y-51501002D02*
X117608000Y-51659750D01*
X117608000Y-52100309D01*
X117704673Y-52333698D01*
X117705955Y-52334980D01*
X117645623Y-52424360D01*
X117595560Y-52674000D01*
X117595560Y-53874000D01*
X117642537Y-54116123D01*
X117665500Y-54151079D01*
X117665500Y-54305264D01*
X116078000Y-52717764D01*
X116078000Y-51807945D01*
X116366275Y-51808197D01*
X116783586Y-51635767D01*
X116984703Y-51435000D01*
X117411500Y-51435000D01*
X117608000Y-51395913D01*
X117608000Y-51501002D01*
X117766748Y-51501002D01*
G36*
X118765000Y-51501000D02*
X118745000Y-51501000D01*
X118745000Y-51521000D01*
X118491000Y-51521000D01*
X118491000Y-51501000D01*
X118471000Y-51501000D01*
X118471000Y-51247000D01*
X118491000Y-51247000D01*
X118491000Y-51227000D01*
X118745000Y-51227000D01*
X118745000Y-51247000D01*
X118765000Y-51247000D01*
X118765000Y-51501000D01*
X118765000Y-51501000D01*
G37*
X118765000Y-51501000D02*
X118745000Y-51501000D01*
X118745000Y-51521000D01*
X118491000Y-51521000D01*
X118491000Y-51501000D01*
X118471000Y-51501000D01*
X118471000Y-51247000D01*
X118491000Y-51247000D01*
X118491000Y-51227000D01*
X118745000Y-51227000D01*
X118745000Y-51247000D01*
X118765000Y-51247000D01*
X118765000Y-51501000D01*
G36*
X122338748Y-51246998D02*
X122219023Y-51246998D01*
X122063698Y-51091673D01*
X121830309Y-50995000D01*
X121189750Y-50995000D01*
X121031000Y-51153750D01*
X121031000Y-52503000D01*
X121051000Y-52503000D01*
X121051000Y-52757000D01*
X121031000Y-52757000D01*
X121031000Y-54106250D01*
X121189750Y-54265000D01*
X121830309Y-54265000D01*
X121985575Y-54200686D01*
X121441826Y-54744435D01*
X121428450Y-54744424D01*
X121010999Y-54916911D01*
X120904093Y-55023629D01*
X120798681Y-54918033D01*
X120381532Y-54744818D01*
X120366542Y-54744804D01*
X119822424Y-54200686D01*
X119977691Y-54265000D01*
X120618250Y-54265000D01*
X120777000Y-54106250D01*
X120777000Y-52757000D01*
X120757000Y-52757000D01*
X120757000Y-52503000D01*
X120777000Y-52503000D01*
X120777000Y-51153750D01*
X120618250Y-50995000D01*
X119977691Y-50995000D01*
X119744302Y-51091673D01*
X119588976Y-51246998D01*
X119469252Y-51246998D01*
X119628000Y-51088250D01*
X119628000Y-50927000D01*
X122180000Y-50927000D01*
X122180000Y-51088250D01*
X122338748Y-51246998D01*
X122338748Y-51246998D01*
G37*
X122338748Y-51246998D02*
X122219023Y-51246998D01*
X122063698Y-51091673D01*
X121830309Y-50995000D01*
X121189750Y-50995000D01*
X121031000Y-51153750D01*
X121031000Y-52503000D01*
X121051000Y-52503000D01*
X121051000Y-52757000D01*
X121031000Y-52757000D01*
X121031000Y-54106250D01*
X121189750Y-54265000D01*
X121830309Y-54265000D01*
X121985575Y-54200686D01*
X121441826Y-54744435D01*
X121428450Y-54744424D01*
X121010999Y-54916911D01*
X120904093Y-55023629D01*
X120798681Y-54918033D01*
X120381532Y-54744818D01*
X120366542Y-54744804D01*
X119822424Y-54200686D01*
X119977691Y-54265000D01*
X120618250Y-54265000D01*
X120777000Y-54106250D01*
X120777000Y-52757000D01*
X120757000Y-52757000D01*
X120757000Y-52503000D01*
X120777000Y-52503000D01*
X120777000Y-51153750D01*
X120618250Y-50995000D01*
X119977691Y-50995000D01*
X119744302Y-51091673D01*
X119588976Y-51246998D01*
X119469252Y-51246998D01*
X119628000Y-51088250D01*
X119628000Y-50927000D01*
X122180000Y-50927000D01*
X122180000Y-51088250D01*
X122338748Y-51246998D01*
G36*
X126365000Y-79641700D02*
X122015788Y-79641700D01*
X121892167Y-79342514D01*
X121573165Y-79022955D01*
X121156156Y-78849797D01*
X120704625Y-78849403D01*
X120287314Y-79021833D01*
X120062794Y-79245960D01*
X119341417Y-78524583D01*
X119073606Y-78345637D01*
X118757700Y-78282800D01*
X117296233Y-78282800D01*
X116459000Y-77445566D01*
X116459000Y-76662172D01*
X116595145Y-76526265D01*
X116768303Y-76109256D01*
X116768697Y-75657725D01*
X116596267Y-75240414D01*
X116486704Y-75130660D01*
X117432786Y-75130660D01*
X117919500Y-75617374D01*
X117919500Y-76146767D01*
X117783355Y-76282675D01*
X117610197Y-76699684D01*
X117609803Y-77151215D01*
X117782233Y-77568526D01*
X118101235Y-77888085D01*
X118518244Y-78061243D01*
X118969775Y-78061637D01*
X119387086Y-77889207D01*
X119706645Y-77570205D01*
X119879803Y-77153196D01*
X119880197Y-76701665D01*
X119762229Y-76416163D01*
X121983983Y-78637917D01*
X122251795Y-78816863D01*
X122567700Y-78879701D01*
X122567700Y-78879700D01*
X122567705Y-78879700D01*
X124129626Y-78879700D01*
X124161550Y-78886050D01*
X126308816Y-78886050D01*
X126365000Y-78942233D01*
X126365000Y-79641700D01*
X126365000Y-79641700D01*
G37*
X126365000Y-79641700D02*
X122015788Y-79641700D01*
X121892167Y-79342514D01*
X121573165Y-79022955D01*
X121156156Y-78849797D01*
X120704625Y-78849403D01*
X120287314Y-79021833D01*
X120062794Y-79245960D01*
X119341417Y-78524583D01*
X119073606Y-78345637D01*
X118757700Y-78282800D01*
X117296233Y-78282800D01*
X116459000Y-77445566D01*
X116459000Y-76662172D01*
X116595145Y-76526265D01*
X116768303Y-76109256D01*
X116768697Y-75657725D01*
X116596267Y-75240414D01*
X116486704Y-75130660D01*
X117432786Y-75130660D01*
X117919500Y-75617374D01*
X117919500Y-76146767D01*
X117783355Y-76282675D01*
X117610197Y-76699684D01*
X117609803Y-77151215D01*
X117782233Y-77568526D01*
X118101235Y-77888085D01*
X118518244Y-78061243D01*
X118969775Y-78061637D01*
X119387086Y-77889207D01*
X119706645Y-77570205D01*
X119879803Y-77153196D01*
X119880197Y-76701665D01*
X119762229Y-76416163D01*
X121983983Y-78637917D01*
X122251795Y-78816863D01*
X122567700Y-78879701D01*
X122567700Y-78879700D01*
X122567705Y-78879700D01*
X124129626Y-78879700D01*
X124161550Y-78886050D01*
X126308816Y-78886050D01*
X126365000Y-78942233D01*
X126365000Y-79641700D01*
G36*
X132080000Y-50253964D02*
X130147124Y-52186840D01*
X128991360Y-52186840D01*
X128259840Y-52186840D01*
X127919634Y-52254511D01*
X127631222Y-52447222D01*
X126610142Y-53468302D01*
X126417431Y-53756714D01*
X126349760Y-54096920D01*
X126349760Y-56700980D01*
X125916705Y-56700603D01*
X125499394Y-56873033D01*
X125179835Y-57192035D01*
X125028536Y-57556400D01*
X123954540Y-57556400D01*
X123945650Y-57558168D01*
X123936760Y-57556400D01*
X122419867Y-57556400D01*
X122420197Y-57179225D01*
X122283392Y-56848133D01*
X122295601Y-56843089D01*
X122615267Y-56523981D01*
X122788482Y-56106832D01*
X122788495Y-56091842D01*
X123863519Y-55016819D01*
X124069995Y-54707806D01*
X124142500Y-54343300D01*
X124142500Y-54153086D01*
X124162377Y-54123640D01*
X124212440Y-53874000D01*
X124212440Y-52674000D01*
X124165463Y-52431877D01*
X124101904Y-52335120D01*
X124103327Y-52333698D01*
X124200000Y-52100309D01*
X124200000Y-51659750D01*
X124041250Y-51501000D01*
X123317000Y-51501000D01*
X123317000Y-51521000D01*
X123063000Y-51521000D01*
X123063000Y-51501000D01*
X123043000Y-51501000D01*
X123043000Y-51247000D01*
X123063000Y-51247000D01*
X123063000Y-51227000D01*
X123317000Y-51227000D01*
X123317000Y-51247000D01*
X124041250Y-51247000D01*
X124200000Y-51088250D01*
X124200000Y-50927000D01*
X127609600Y-50927000D01*
X127650803Y-50918804D01*
X128101075Y-50919197D01*
X128518386Y-50746767D01*
X128837945Y-50427765D01*
X129011103Y-50010756D01*
X129011467Y-49593500D01*
X129032000Y-49593500D01*
X129347905Y-49530663D01*
X129347906Y-49530663D01*
X129615717Y-49351717D01*
X131012713Y-47954719D01*
X131012716Y-47954717D01*
X131012717Y-47954717D01*
X131119986Y-47794175D01*
X131191663Y-47686906D01*
X131191663Y-47686905D01*
X131254500Y-47371000D01*
X131254500Y-47120882D01*
X131488670Y-46964415D01*
X131699000Y-46649634D01*
X131909330Y-46964415D01*
X132080000Y-47078453D01*
X132080000Y-50253964D01*
X132080000Y-50253964D01*
G37*
X132080000Y-50253964D02*
X130147124Y-52186840D01*
X128991360Y-52186840D01*
X128259840Y-52186840D01*
X127919634Y-52254511D01*
X127631222Y-52447222D01*
X126610142Y-53468302D01*
X126417431Y-53756714D01*
X126349760Y-54096920D01*
X126349760Y-56700980D01*
X125916705Y-56700603D01*
X125499394Y-56873033D01*
X125179835Y-57192035D01*
X125028536Y-57556400D01*
X123954540Y-57556400D01*
X123945650Y-57558168D01*
X123936760Y-57556400D01*
X122419867Y-57556400D01*
X122420197Y-57179225D01*
X122283392Y-56848133D01*
X122295601Y-56843089D01*
X122615267Y-56523981D01*
X122788482Y-56106832D01*
X122788495Y-56091842D01*
X123863519Y-55016819D01*
X124069995Y-54707806D01*
X124142500Y-54343300D01*
X124142500Y-54153086D01*
X124162377Y-54123640D01*
X124212440Y-53874000D01*
X124212440Y-52674000D01*
X124165463Y-52431877D01*
X124101904Y-52335120D01*
X124103327Y-52333698D01*
X124200000Y-52100309D01*
X124200000Y-51659750D01*
X124041250Y-51501000D01*
X123317000Y-51501000D01*
X123317000Y-51521000D01*
X123063000Y-51521000D01*
X123063000Y-51501000D01*
X123043000Y-51501000D01*
X123043000Y-51247000D01*
X123063000Y-51247000D01*
X123063000Y-51227000D01*
X123317000Y-51227000D01*
X123317000Y-51247000D01*
X124041250Y-51247000D01*
X124200000Y-51088250D01*
X124200000Y-50927000D01*
X127609600Y-50927000D01*
X127650803Y-50918804D01*
X128101075Y-50919197D01*
X128518386Y-50746767D01*
X128837945Y-50427765D01*
X129011103Y-50010756D01*
X129011467Y-49593500D01*
X129032000Y-49593500D01*
X129347905Y-49530663D01*
X129347906Y-49530663D01*
X129615717Y-49351717D01*
X131012713Y-47954719D01*
X131012716Y-47954717D01*
X131012717Y-47954717D01*
X131119986Y-47794175D01*
X131191663Y-47686906D01*
X131191663Y-47686905D01*
X131254500Y-47371000D01*
X131254500Y-47120882D01*
X131488670Y-46964415D01*
X131699000Y-46649634D01*
X131909330Y-46964415D01*
X132080000Y-47078453D01*
X132080000Y-50253964D01*
G36*
X137160000Y-51968464D02*
X133356382Y-55772082D01*
X133163671Y-56060494D01*
X133096000Y-56400700D01*
X133096000Y-58928000D01*
X133096000Y-60071000D01*
X133096000Y-60083764D01*
X130424233Y-62755530D01*
X130401756Y-62746197D01*
X129950225Y-62745803D01*
X129921000Y-62757878D01*
X129921000Y-60312236D01*
X130422618Y-59810618D01*
X130615329Y-59522206D01*
X130615329Y-59522205D01*
X130683000Y-59182000D01*
X130683000Y-56850283D01*
X130755645Y-56777765D01*
X130928803Y-56360756D01*
X130929197Y-55909225D01*
X130756767Y-55491914D01*
X130437765Y-55172355D01*
X130020756Y-54999197D01*
X129569225Y-54998803D01*
X129151914Y-55171233D01*
X128832355Y-55490235D01*
X128659197Y-55907244D01*
X128658803Y-56358775D01*
X128831233Y-56776086D01*
X128905000Y-56849981D01*
X128905000Y-58813764D01*
X128403382Y-59315382D01*
X128210671Y-59603794D01*
X128143000Y-59944000D01*
X128143000Y-60083764D01*
X128127760Y-60068524D01*
X128127760Y-54465156D01*
X128628076Y-53964840D01*
X128991360Y-53964840D01*
X130515360Y-53964840D01*
X130855565Y-53897169D01*
X130855566Y-53897169D01*
X131143978Y-53704458D01*
X133597618Y-51250818D01*
X133790329Y-50962406D01*
X133790329Y-50962405D01*
X133858000Y-50622200D01*
X133858000Y-48859887D01*
X134075744Y-48950303D01*
X134180158Y-48950394D01*
X134556500Y-49326736D01*
X134556500Y-51353716D01*
X134483855Y-51426235D01*
X134310697Y-51843244D01*
X134310303Y-52294775D01*
X134482733Y-52712086D01*
X134801735Y-53031645D01*
X135218744Y-53204803D01*
X135670275Y-53205197D01*
X136087586Y-53032767D01*
X136407145Y-52713765D01*
X136580303Y-52296756D01*
X136580697Y-51845225D01*
X136408267Y-51427914D01*
X136334500Y-51354018D01*
X136334500Y-48958500D01*
X136266829Y-48618295D01*
X136266829Y-48618294D01*
X136074118Y-48329882D01*
X135437607Y-47693371D01*
X135437697Y-47590725D01*
X135346954Y-47371112D01*
X135509000Y-47403345D01*
X136082489Y-47289271D01*
X136568670Y-46964415D01*
X136779000Y-46649634D01*
X136989330Y-46964415D01*
X137160000Y-47078453D01*
X137160000Y-51968464D01*
X137160000Y-51968464D01*
G37*
X137160000Y-51968464D02*
X133356382Y-55772082D01*
X133163671Y-56060494D01*
X133096000Y-56400700D01*
X133096000Y-58928000D01*
X133096000Y-60071000D01*
X133096000Y-60083764D01*
X130424233Y-62755530D01*
X130401756Y-62746197D01*
X129950225Y-62745803D01*
X129921000Y-62757878D01*
X129921000Y-60312236D01*
X130422618Y-59810618D01*
X130615329Y-59522206D01*
X130615329Y-59522205D01*
X130683000Y-59182000D01*
X130683000Y-56850283D01*
X130755645Y-56777765D01*
X130928803Y-56360756D01*
X130929197Y-55909225D01*
X130756767Y-55491914D01*
X130437765Y-55172355D01*
X130020756Y-54999197D01*
X129569225Y-54998803D01*
X129151914Y-55171233D01*
X128832355Y-55490235D01*
X128659197Y-55907244D01*
X128658803Y-56358775D01*
X128831233Y-56776086D01*
X128905000Y-56849981D01*
X128905000Y-58813764D01*
X128403382Y-59315382D01*
X128210671Y-59603794D01*
X128143000Y-59944000D01*
X128143000Y-60083764D01*
X128127760Y-60068524D01*
X128127760Y-54465156D01*
X128628076Y-53964840D01*
X128991360Y-53964840D01*
X130515360Y-53964840D01*
X130855565Y-53897169D01*
X130855566Y-53897169D01*
X131143978Y-53704458D01*
X133597618Y-51250818D01*
X133790329Y-50962406D01*
X133790329Y-50962405D01*
X133858000Y-50622200D01*
X133858000Y-48859887D01*
X134075744Y-48950303D01*
X134180158Y-48950394D01*
X134556500Y-49326736D01*
X134556500Y-51353716D01*
X134483855Y-51426235D01*
X134310697Y-51843244D01*
X134310303Y-52294775D01*
X134482733Y-52712086D01*
X134801735Y-53031645D01*
X135218744Y-53204803D01*
X135670275Y-53205197D01*
X136087586Y-53032767D01*
X136407145Y-52713765D01*
X136580303Y-52296756D01*
X136580697Y-51845225D01*
X136408267Y-51427914D01*
X136334500Y-51354018D01*
X136334500Y-48958500D01*
X136266829Y-48618295D01*
X136266829Y-48618294D01*
X136074118Y-48329882D01*
X135437607Y-47693371D01*
X135437697Y-47590725D01*
X135346954Y-47371112D01*
X135509000Y-47403345D01*
X136082489Y-47289271D01*
X136568670Y-46964415D01*
X136779000Y-46649634D01*
X136989330Y-46964415D01*
X137160000Y-47078453D01*
X137160000Y-51968464D01*
G36*
X175918659Y-75247500D02*
X154876500Y-75247500D01*
X154552200Y-75312007D01*
X154487693Y-75324838D01*
X154158080Y-75545079D01*
X152623145Y-77080014D01*
X152623145Y-76077353D01*
X152598686Y-75437685D01*
X152400951Y-74960310D01*
X152136783Y-74864822D01*
X151957178Y-75044427D01*
X151957178Y-74685217D01*
X151861690Y-74421049D01*
X151261353Y-74198855D01*
X150621685Y-74223314D01*
X150144310Y-74421049D01*
X150048822Y-74685217D01*
X151003000Y-75639395D01*
X151957178Y-74685217D01*
X151957178Y-75044427D01*
X151182605Y-75819000D01*
X152136783Y-76773178D01*
X152400951Y-76677690D01*
X152623145Y-76077353D01*
X152623145Y-77080014D01*
X151957178Y-77745981D01*
X151957178Y-76952783D01*
X151003000Y-75998605D01*
X150823395Y-76178210D01*
X150823395Y-75819000D01*
X149869217Y-74864822D01*
X149605049Y-74960310D01*
X149382855Y-75560647D01*
X149407314Y-76200315D01*
X149605049Y-76677690D01*
X149869217Y-76773178D01*
X150823395Y-75819000D01*
X150823395Y-76178210D01*
X150048822Y-76952783D01*
X150144310Y-77216951D01*
X150744647Y-77439145D01*
X151384315Y-77414686D01*
X151861690Y-77216951D01*
X151957178Y-76952783D01*
X151957178Y-77745981D01*
X150963159Y-78740000D01*
X140554466Y-78740000D01*
X140518699Y-78686470D01*
X140551723Y-78680063D01*
X140764527Y-78540273D01*
X140906977Y-78329240D01*
X140957040Y-78079600D01*
X140957040Y-76352400D01*
X140910063Y-76110277D01*
X140770273Y-75897473D01*
X140559240Y-75755023D01*
X140309600Y-75704960D01*
X140287054Y-75704960D01*
X140267329Y-75605795D01*
X140267329Y-75605794D01*
X140074618Y-75317382D01*
X139376118Y-74618882D01*
X139087706Y-74426171D01*
X138747500Y-74358500D01*
X135001000Y-74358500D01*
X134660795Y-74426170D01*
X134372382Y-74618882D01*
X134130598Y-74860665D01*
X134124217Y-74854283D01*
X133856406Y-74675337D01*
X133540500Y-74612500D01*
X130770934Y-74612500D01*
X130367074Y-74208640D01*
X130655060Y-74208640D01*
X130995265Y-74140969D01*
X130995266Y-74140969D01*
X131283678Y-73948258D01*
X131954238Y-73277698D01*
X132474938Y-72756998D01*
X132979334Y-72252601D01*
X133149233Y-72663786D01*
X133468235Y-72983345D01*
X133756505Y-73103045D01*
X134269879Y-73616420D01*
X134599493Y-73836661D01*
X134988300Y-73913999D01*
X134994647Y-73912736D01*
X135001000Y-73914000D01*
X135686800Y-73914000D01*
X161163000Y-73914000D01*
X174585159Y-73914000D01*
X175918659Y-75247500D01*
X175918659Y-75247500D01*
G37*
X175918659Y-75247500D02*
X154876500Y-75247500D01*
X154552200Y-75312007D01*
X154487693Y-75324838D01*
X154158080Y-75545079D01*
X152623145Y-77080014D01*
X152623145Y-76077353D01*
X152598686Y-75437685D01*
X152400951Y-74960310D01*
X152136783Y-74864822D01*
X151957178Y-75044427D01*
X151957178Y-74685217D01*
X151861690Y-74421049D01*
X151261353Y-74198855D01*
X150621685Y-74223314D01*
X150144310Y-74421049D01*
X150048822Y-74685217D01*
X151003000Y-75639395D01*
X151957178Y-74685217D01*
X151957178Y-75044427D01*
X151182605Y-75819000D01*
X152136783Y-76773178D01*
X152400951Y-76677690D01*
X152623145Y-76077353D01*
X152623145Y-77080014D01*
X151957178Y-77745981D01*
X151957178Y-76952783D01*
X151003000Y-75998605D01*
X150823395Y-76178210D01*
X150823395Y-75819000D01*
X149869217Y-74864822D01*
X149605049Y-74960310D01*
X149382855Y-75560647D01*
X149407314Y-76200315D01*
X149605049Y-76677690D01*
X149869217Y-76773178D01*
X150823395Y-75819000D01*
X150823395Y-76178210D01*
X150048822Y-76952783D01*
X150144310Y-77216951D01*
X150744647Y-77439145D01*
X151384315Y-77414686D01*
X151861690Y-77216951D01*
X151957178Y-76952783D01*
X151957178Y-77745981D01*
X150963159Y-78740000D01*
X140554466Y-78740000D01*
X140518699Y-78686470D01*
X140551723Y-78680063D01*
X140764527Y-78540273D01*
X140906977Y-78329240D01*
X140957040Y-78079600D01*
X140957040Y-76352400D01*
X140910063Y-76110277D01*
X140770273Y-75897473D01*
X140559240Y-75755023D01*
X140309600Y-75704960D01*
X140287054Y-75704960D01*
X140267329Y-75605795D01*
X140267329Y-75605794D01*
X140074618Y-75317382D01*
X139376118Y-74618882D01*
X139087706Y-74426171D01*
X138747500Y-74358500D01*
X135001000Y-74358500D01*
X134660795Y-74426170D01*
X134372382Y-74618882D01*
X134130598Y-74860665D01*
X134124217Y-74854283D01*
X133856406Y-74675337D01*
X133540500Y-74612500D01*
X130770934Y-74612500D01*
X130367074Y-74208640D01*
X130655060Y-74208640D01*
X130995265Y-74140969D01*
X130995266Y-74140969D01*
X131283678Y-73948258D01*
X131954238Y-73277698D01*
X132474938Y-72756998D01*
X132979334Y-72252601D01*
X133149233Y-72663786D01*
X133468235Y-72983345D01*
X133756505Y-73103045D01*
X134269879Y-73616420D01*
X134599493Y-73836661D01*
X134988300Y-73913999D01*
X134994647Y-73912736D01*
X135001000Y-73914000D01*
X135686800Y-73914000D01*
X161163000Y-73914000D01*
X174585159Y-73914000D01*
X175918659Y-75247500D01*
G36*
X190290000Y-91290000D02*
X186267229Y-91290000D01*
X186267229Y-84609931D01*
X186267229Y-84007669D01*
X186267229Y-79609931D01*
X186267229Y-79007669D01*
X186125568Y-78597751D01*
X185837821Y-78273248D01*
X185572400Y-78142827D01*
X185572400Y-55470370D01*
X185572400Y-55217751D01*
X185572400Y-53879750D01*
X185572400Y-53308250D01*
X185572400Y-51970249D01*
X185572400Y-51717630D01*
X185475727Y-51484241D01*
X185297098Y-51305613D01*
X185063709Y-51208940D01*
X183473090Y-51208940D01*
X183314340Y-51367690D01*
X183314340Y-53467000D01*
X185413650Y-53467000D01*
X185572400Y-53308250D01*
X185572400Y-53879750D01*
X185413650Y-53721000D01*
X183314340Y-53721000D01*
X183314340Y-55820310D01*
X183473090Y-55979060D01*
X185063709Y-55979060D01*
X185297098Y-55882387D01*
X185475727Y-55703759D01*
X185572400Y-55470370D01*
X185572400Y-78142827D01*
X185463938Y-78089532D01*
X185293000Y-78216066D01*
X185293000Y-79181800D01*
X186118563Y-79181800D01*
X186267229Y-79007669D01*
X186267229Y-79609931D01*
X186118563Y-79435800D01*
X185293000Y-79435800D01*
X185293000Y-80401534D01*
X185463938Y-80528068D01*
X185837821Y-80344352D01*
X186125568Y-80019849D01*
X186267229Y-79609931D01*
X186267229Y-84007669D01*
X186125568Y-83597751D01*
X185837821Y-83273248D01*
X185463938Y-83089532D01*
X185293000Y-83216066D01*
X185293000Y-84181800D01*
X186118563Y-84181800D01*
X186267229Y-84007669D01*
X186267229Y-84609931D01*
X186118563Y-84435800D01*
X185293000Y-84435800D01*
X185293000Y-85401534D01*
X185463938Y-85528068D01*
X185837821Y-85344352D01*
X186125568Y-85019849D01*
X186267229Y-84609931D01*
X186267229Y-91290000D01*
X180753954Y-91290000D01*
X181134486Y-91132767D01*
X181454045Y-90813765D01*
X181627203Y-90396756D01*
X181627597Y-89945225D01*
X181455167Y-89527914D01*
X181284750Y-89357200D01*
X182598859Y-89357200D01*
X183640429Y-90398770D01*
X183758733Y-90685086D01*
X184077735Y-91004645D01*
X184494744Y-91177803D01*
X184946275Y-91178197D01*
X185363586Y-91005767D01*
X185683145Y-90686765D01*
X185856303Y-90269756D01*
X185856697Y-89818225D01*
X185684267Y-89400914D01*
X185365265Y-89081355D01*
X185076995Y-88961654D01*
X184086500Y-87971159D01*
X184086500Y-84672807D01*
X184206432Y-85019849D01*
X184494179Y-85344352D01*
X184868062Y-85528068D01*
X185039000Y-85401534D01*
X185039000Y-84435800D01*
X185019000Y-84435800D01*
X185019000Y-84181800D01*
X185039000Y-84181800D01*
X185039000Y-83216066D01*
X184868062Y-83089532D01*
X184494179Y-83273248D01*
X184206432Y-83597751D01*
X184086500Y-83944792D01*
X184086500Y-79672807D01*
X184206432Y-80019849D01*
X184494179Y-80344352D01*
X184868062Y-80528068D01*
X185039000Y-80401534D01*
X185039000Y-79435800D01*
X185019000Y-79435800D01*
X185019000Y-79181800D01*
X185039000Y-79181800D01*
X185039000Y-78216066D01*
X184868062Y-78089532D01*
X184494179Y-78273248D01*
X184206432Y-78597751D01*
X184064771Y-79007669D01*
X184213435Y-79181798D01*
X184085962Y-79181798D01*
X184009162Y-78795694D01*
X184009162Y-78795693D01*
X183788921Y-78466080D01*
X183060340Y-77737499D01*
X183060340Y-55820310D01*
X183060340Y-53721000D01*
X183060340Y-53467000D01*
X183060340Y-51367690D01*
X182901590Y-51208940D01*
X182235667Y-51208940D01*
X182297358Y-51183387D01*
X182475987Y-51004759D01*
X182572660Y-50771370D01*
X182572660Y-50518751D01*
X182572660Y-49180750D01*
X182572660Y-48609250D01*
X182572660Y-47271249D01*
X182572660Y-47018630D01*
X182475987Y-46785241D01*
X182319265Y-46628519D01*
X182319265Y-43130009D01*
X182086068Y-42565629D01*
X181654643Y-42133449D01*
X181090670Y-41899267D01*
X180480009Y-41898735D01*
X179915629Y-42131932D01*
X179713376Y-42333831D01*
X179597923Y-42218176D01*
X179070691Y-41999250D01*
X178499813Y-41998752D01*
X177972200Y-42216757D01*
X177784025Y-42404603D01*
X177597923Y-42218176D01*
X177070691Y-41999250D01*
X176499813Y-41998752D01*
X175972200Y-42216757D01*
X175784025Y-42404603D01*
X175597923Y-42218176D01*
X175070691Y-41999250D01*
X174499813Y-41998752D01*
X173972200Y-42216757D01*
X173854798Y-42333954D01*
X173654643Y-42133449D01*
X173090670Y-41899267D01*
X172480009Y-41898735D01*
X171915629Y-42131932D01*
X171483449Y-42563357D01*
X171249267Y-43127330D01*
X171248735Y-43737991D01*
X171481932Y-44302371D01*
X171913357Y-44734551D01*
X172477330Y-44968733D01*
X173087991Y-44969265D01*
X173652371Y-44736068D01*
X173854623Y-44534168D01*
X173970077Y-44649824D01*
X174497309Y-44868750D01*
X175068187Y-44869248D01*
X175595800Y-44651243D01*
X175783974Y-44463396D01*
X175970077Y-44649824D01*
X176497309Y-44868750D01*
X177068187Y-44869248D01*
X177595800Y-44651243D01*
X177704500Y-44542732D01*
X177704500Y-44542856D01*
X176020678Y-46226678D01*
X175786672Y-46576893D01*
X175704500Y-46990000D01*
X175704500Y-51196500D01*
X175437800Y-51196500D01*
X175195677Y-51243477D01*
X174982873Y-51383267D01*
X174840423Y-51594300D01*
X174790360Y-51843940D01*
X174790360Y-55344060D01*
X174837337Y-55586183D01*
X174977127Y-55798987D01*
X175188160Y-55941437D01*
X175437800Y-55991500D01*
X178937920Y-55991500D01*
X179180043Y-55944523D01*
X179392847Y-55804733D01*
X179535297Y-55593700D01*
X179585360Y-55344060D01*
X179585360Y-51843940D01*
X179538383Y-51601817D01*
X179398593Y-51389013D01*
X179237184Y-51280060D01*
X179901850Y-51280060D01*
X180060600Y-51121310D01*
X180060600Y-49022000D01*
X180040600Y-49022000D01*
X180040600Y-48768000D01*
X180060600Y-48768000D01*
X180060600Y-46668690D01*
X179901850Y-46509940D01*
X178790704Y-46509940D01*
X179547322Y-45753322D01*
X179781328Y-45403107D01*
X179863500Y-44990000D01*
X179863500Y-44684606D01*
X179913357Y-44734551D01*
X180477330Y-44968733D01*
X181087991Y-44969265D01*
X181652371Y-44736068D01*
X182084551Y-44304643D01*
X182318733Y-43740670D01*
X182319265Y-43130009D01*
X182319265Y-46628519D01*
X182297358Y-46606613D01*
X182063969Y-46509940D01*
X180473350Y-46509940D01*
X180314600Y-46668690D01*
X180314600Y-48768000D01*
X182413910Y-48768000D01*
X182572660Y-48609250D01*
X182572660Y-49180750D01*
X182413910Y-49022000D01*
X180314600Y-49022000D01*
X180314600Y-51121310D01*
X180473350Y-51280060D01*
X181139272Y-51280060D01*
X181077582Y-51305613D01*
X180898953Y-51484241D01*
X180802280Y-51717630D01*
X180802280Y-51970249D01*
X180802280Y-53308250D01*
X180961030Y-53467000D01*
X183060340Y-53467000D01*
X183060340Y-53721000D01*
X180961030Y-53721000D01*
X180802280Y-53879750D01*
X180802280Y-55217751D01*
X180802280Y-55470370D01*
X180898953Y-55703759D01*
X181077582Y-55882387D01*
X181310971Y-55979060D01*
X182901590Y-55979060D01*
X183060340Y-55820310D01*
X183060340Y-77737499D01*
X182945071Y-77622230D01*
X182826767Y-77335914D01*
X182507765Y-77016355D01*
X182090756Y-76843197D01*
X181639225Y-76842803D01*
X181221914Y-77015233D01*
X180902355Y-77334235D01*
X180895524Y-77350683D01*
X175724420Y-72179580D01*
X175394807Y-71959338D01*
X175330299Y-71946507D01*
X175006000Y-71882000D01*
X161163000Y-71882000D01*
X160647197Y-71882000D01*
X160647197Y-70062105D01*
X160474767Y-69644794D01*
X160155765Y-69325235D01*
X159738756Y-69152077D01*
X159287225Y-69151683D01*
X158998747Y-69270880D01*
X140303720Y-69270880D01*
X140003831Y-68970990D01*
X139885527Y-68684674D01*
X139566525Y-68365115D01*
X139149516Y-68191957D01*
X138697985Y-68191563D01*
X138280674Y-68363993D01*
X137961115Y-68682995D01*
X137787957Y-69100004D01*
X137787563Y-69551535D01*
X137959993Y-69968846D01*
X138278995Y-70288405D01*
X138567265Y-70408105D01*
X139164460Y-71005301D01*
X139494073Y-71225542D01*
X139494074Y-71225542D01*
X139882880Y-71302880D01*
X158999135Y-71302880D01*
X159285244Y-71421683D01*
X159736775Y-71422077D01*
X160154086Y-71249647D01*
X160473645Y-70930645D01*
X160646803Y-70513636D01*
X160647197Y-70062105D01*
X160647197Y-71882000D01*
X135686800Y-71882000D01*
X135409140Y-71882000D01*
X135193071Y-71665930D01*
X135074767Y-71379614D01*
X134755765Y-71060055D01*
X134344990Y-70889485D01*
X148526436Y-56708040D01*
X149629288Y-56708040D01*
X149638084Y-56729326D01*
X150090334Y-57182365D01*
X150681528Y-57427850D01*
X151321664Y-57428409D01*
X151913286Y-57183956D01*
X152366325Y-56731706D01*
X152611810Y-56140512D01*
X152612369Y-55500376D01*
X152367916Y-54908754D01*
X151915666Y-54455715D01*
X151324472Y-54210230D01*
X150684336Y-54209671D01*
X150092714Y-54454124D01*
X149639675Y-54906374D01*
X149629848Y-54930040D01*
X148158200Y-54930040D01*
X147817994Y-54997711D01*
X147529582Y-55190422D01*
X132953826Y-69766177D01*
X132946172Y-69771292D01*
X131217702Y-71499762D01*
X130697002Y-72020462D01*
X130286824Y-72430640D01*
X128048778Y-72430640D01*
X128048837Y-72363345D01*
X127876407Y-71946034D01*
X127754166Y-71823580D01*
X128473200Y-71823580D01*
X128789105Y-71760743D01*
X128789106Y-71760743D01*
X128809886Y-71746857D01*
X128809887Y-71746857D01*
X128904845Y-71727969D01*
X129193258Y-71535258D01*
X137321258Y-63407258D01*
X137331487Y-63391948D01*
X141049978Y-59673458D01*
X141242689Y-59385046D01*
X141310360Y-59044840D01*
X141310360Y-55653876D01*
X143005945Y-53958290D01*
X143272635Y-54225445D01*
X143689644Y-54398603D01*
X144078287Y-54398942D01*
X144147433Y-54566286D01*
X144466435Y-54885845D01*
X144883444Y-55059003D01*
X145334975Y-55059397D01*
X145752286Y-54886967D01*
X146071845Y-54567965D01*
X146245003Y-54150956D01*
X146245094Y-54046541D01*
X150107618Y-50184018D01*
X150300329Y-49895606D01*
X150300329Y-49895605D01*
X150368000Y-49555400D01*
X150368000Y-47327559D01*
X150749000Y-47403345D01*
X151322489Y-47289271D01*
X151808670Y-46964415D01*
X152019000Y-46649634D01*
X152229330Y-46964415D01*
X152715511Y-47289271D01*
X153289000Y-47403345D01*
X153862489Y-47289271D01*
X154348670Y-46964415D01*
X154559000Y-46649634D01*
X154769330Y-46964415D01*
X155255511Y-47289271D01*
X155829000Y-47403345D01*
X156402489Y-47289271D01*
X156888670Y-46964415D01*
X157099000Y-46649634D01*
X157309330Y-46964415D01*
X157795511Y-47289271D01*
X158369000Y-47403345D01*
X158942489Y-47289271D01*
X159428670Y-46964415D01*
X159639000Y-46649634D01*
X159849330Y-46964415D01*
X160335511Y-47289271D01*
X160909000Y-47403345D01*
X161482489Y-47289271D01*
X161968670Y-46964415D01*
X162179000Y-46649634D01*
X162389330Y-46964415D01*
X162875511Y-47289271D01*
X163449000Y-47403345D01*
X164022489Y-47289271D01*
X164508670Y-46964415D01*
X164519215Y-46948632D01*
X164524937Y-46978123D01*
X164664727Y-47190927D01*
X164875760Y-47333377D01*
X165125400Y-47383440D01*
X166852600Y-47383440D01*
X167094723Y-47336463D01*
X167307527Y-47196673D01*
X167449977Y-46985640D01*
X167500040Y-46736000D01*
X167500040Y-44704000D01*
X167453063Y-44461877D01*
X167313273Y-44249073D01*
X167102240Y-44106623D01*
X166852600Y-44056560D01*
X165125400Y-44056560D01*
X164883277Y-44103537D01*
X164670473Y-44243327D01*
X164528023Y-44454360D01*
X164520281Y-44492962D01*
X164508670Y-44475585D01*
X164022489Y-44150729D01*
X163449000Y-44036655D01*
X162875511Y-44150729D01*
X162389330Y-44475585D01*
X162179000Y-44790365D01*
X161968670Y-44475585D01*
X161482489Y-44150729D01*
X160909000Y-44036655D01*
X160335511Y-44150729D01*
X159849330Y-44475585D01*
X159639000Y-44790365D01*
X159428670Y-44475585D01*
X158942489Y-44150729D01*
X158369000Y-44036655D01*
X157795511Y-44150729D01*
X157309330Y-44475585D01*
X157099000Y-44790365D01*
X156888670Y-44475585D01*
X156402489Y-44150729D01*
X155829000Y-44036655D01*
X155255511Y-44150729D01*
X154769330Y-44475585D01*
X154559000Y-44790365D01*
X154348670Y-44475585D01*
X153862489Y-44150729D01*
X153289000Y-44036655D01*
X152715511Y-44150729D01*
X152229330Y-44475585D01*
X152019000Y-44790365D01*
X151808670Y-44475585D01*
X151322489Y-44150729D01*
X150749000Y-44036655D01*
X150316919Y-44122601D01*
X150368000Y-43865800D01*
X150300329Y-43525595D01*
X150107618Y-43237182D01*
X148580436Y-41710000D01*
X186286322Y-41710000D01*
X186286322Y-43808650D01*
X190290000Y-43808650D01*
X190290000Y-91290000D01*
X190290000Y-91290000D01*
G37*
X190290000Y-91290000D02*
X186267229Y-91290000D01*
X186267229Y-84609931D01*
X186267229Y-84007669D01*
X186267229Y-79609931D01*
X186267229Y-79007669D01*
X186125568Y-78597751D01*
X185837821Y-78273248D01*
X185572400Y-78142827D01*
X185572400Y-55470370D01*
X185572400Y-55217751D01*
X185572400Y-53879750D01*
X185572400Y-53308250D01*
X185572400Y-51970249D01*
X185572400Y-51717630D01*
X185475727Y-51484241D01*
X185297098Y-51305613D01*
X185063709Y-51208940D01*
X183473090Y-51208940D01*
X183314340Y-51367690D01*
X183314340Y-53467000D01*
X185413650Y-53467000D01*
X185572400Y-53308250D01*
X185572400Y-53879750D01*
X185413650Y-53721000D01*
X183314340Y-53721000D01*
X183314340Y-55820310D01*
X183473090Y-55979060D01*
X185063709Y-55979060D01*
X185297098Y-55882387D01*
X185475727Y-55703759D01*
X185572400Y-55470370D01*
X185572400Y-78142827D01*
X185463938Y-78089532D01*
X185293000Y-78216066D01*
X185293000Y-79181800D01*
X186118563Y-79181800D01*
X186267229Y-79007669D01*
X186267229Y-79609931D01*
X186118563Y-79435800D01*
X185293000Y-79435800D01*
X185293000Y-80401534D01*
X185463938Y-80528068D01*
X185837821Y-80344352D01*
X186125568Y-80019849D01*
X186267229Y-79609931D01*
X186267229Y-84007669D01*
X186125568Y-83597751D01*
X185837821Y-83273248D01*
X185463938Y-83089532D01*
X185293000Y-83216066D01*
X185293000Y-84181800D01*
X186118563Y-84181800D01*
X186267229Y-84007669D01*
X186267229Y-84609931D01*
X186118563Y-84435800D01*
X185293000Y-84435800D01*
X185293000Y-85401534D01*
X185463938Y-85528068D01*
X185837821Y-85344352D01*
X186125568Y-85019849D01*
X186267229Y-84609931D01*
X186267229Y-91290000D01*
X180753954Y-91290000D01*
X181134486Y-91132767D01*
X181454045Y-90813765D01*
X181627203Y-90396756D01*
X181627597Y-89945225D01*
X181455167Y-89527914D01*
X181284750Y-89357200D01*
X182598859Y-89357200D01*
X183640429Y-90398770D01*
X183758733Y-90685086D01*
X184077735Y-91004645D01*
X184494744Y-91177803D01*
X184946275Y-91178197D01*
X185363586Y-91005767D01*
X185683145Y-90686765D01*
X185856303Y-90269756D01*
X185856697Y-89818225D01*
X185684267Y-89400914D01*
X185365265Y-89081355D01*
X185076995Y-88961654D01*
X184086500Y-87971159D01*
X184086500Y-84672807D01*
X184206432Y-85019849D01*
X184494179Y-85344352D01*
X184868062Y-85528068D01*
X185039000Y-85401534D01*
X185039000Y-84435800D01*
X185019000Y-84435800D01*
X185019000Y-84181800D01*
X185039000Y-84181800D01*
X185039000Y-83216066D01*
X184868062Y-83089532D01*
X184494179Y-83273248D01*
X184206432Y-83597751D01*
X184086500Y-83944792D01*
X184086500Y-79672807D01*
X184206432Y-80019849D01*
X184494179Y-80344352D01*
X184868062Y-80528068D01*
X185039000Y-80401534D01*
X185039000Y-79435800D01*
X185019000Y-79435800D01*
X185019000Y-79181800D01*
X185039000Y-79181800D01*
X185039000Y-78216066D01*
X184868062Y-78089532D01*
X184494179Y-78273248D01*
X184206432Y-78597751D01*
X184064771Y-79007669D01*
X184213435Y-79181798D01*
X184085962Y-79181798D01*
X184009162Y-78795694D01*
X184009162Y-78795693D01*
X183788921Y-78466080D01*
X183060340Y-77737499D01*
X183060340Y-55820310D01*
X183060340Y-53721000D01*
X183060340Y-53467000D01*
X183060340Y-51367690D01*
X182901590Y-51208940D01*
X182235667Y-51208940D01*
X182297358Y-51183387D01*
X182475987Y-51004759D01*
X182572660Y-50771370D01*
X182572660Y-50518751D01*
X182572660Y-49180750D01*
X182572660Y-48609250D01*
X182572660Y-47271249D01*
X182572660Y-47018630D01*
X182475987Y-46785241D01*
X182319265Y-46628519D01*
X182319265Y-43130009D01*
X182086068Y-42565629D01*
X181654643Y-42133449D01*
X181090670Y-41899267D01*
X180480009Y-41898735D01*
X179915629Y-42131932D01*
X179713376Y-42333831D01*
X179597923Y-42218176D01*
X179070691Y-41999250D01*
X178499813Y-41998752D01*
X177972200Y-42216757D01*
X177784025Y-42404603D01*
X177597923Y-42218176D01*
X177070691Y-41999250D01*
X176499813Y-41998752D01*
X175972200Y-42216757D01*
X175784025Y-42404603D01*
X175597923Y-42218176D01*
X175070691Y-41999250D01*
X174499813Y-41998752D01*
X173972200Y-42216757D01*
X173854798Y-42333954D01*
X173654643Y-42133449D01*
X173090670Y-41899267D01*
X172480009Y-41898735D01*
X171915629Y-42131932D01*
X171483449Y-42563357D01*
X171249267Y-43127330D01*
X171248735Y-43737991D01*
X171481932Y-44302371D01*
X171913357Y-44734551D01*
X172477330Y-44968733D01*
X173087991Y-44969265D01*
X173652371Y-44736068D01*
X173854623Y-44534168D01*
X173970077Y-44649824D01*
X174497309Y-44868750D01*
X175068187Y-44869248D01*
X175595800Y-44651243D01*
X175783974Y-44463396D01*
X175970077Y-44649824D01*
X176497309Y-44868750D01*
X177068187Y-44869248D01*
X177595800Y-44651243D01*
X177704500Y-44542732D01*
X177704500Y-44542856D01*
X176020678Y-46226678D01*
X175786672Y-46576893D01*
X175704500Y-46990000D01*
X175704500Y-51196500D01*
X175437800Y-51196500D01*
X175195677Y-51243477D01*
X174982873Y-51383267D01*
X174840423Y-51594300D01*
X174790360Y-51843940D01*
X174790360Y-55344060D01*
X174837337Y-55586183D01*
X174977127Y-55798987D01*
X175188160Y-55941437D01*
X175437800Y-55991500D01*
X178937920Y-55991500D01*
X179180043Y-55944523D01*
X179392847Y-55804733D01*
X179535297Y-55593700D01*
X179585360Y-55344060D01*
X179585360Y-51843940D01*
X179538383Y-51601817D01*
X179398593Y-51389013D01*
X179237184Y-51280060D01*
X179901850Y-51280060D01*
X180060600Y-51121310D01*
X180060600Y-49022000D01*
X180040600Y-49022000D01*
X180040600Y-48768000D01*
X180060600Y-48768000D01*
X180060600Y-46668690D01*
X179901850Y-46509940D01*
X178790704Y-46509940D01*
X179547322Y-45753322D01*
X179781328Y-45403107D01*
X179863500Y-44990000D01*
X179863500Y-44684606D01*
X179913357Y-44734551D01*
X180477330Y-44968733D01*
X181087991Y-44969265D01*
X181652371Y-44736068D01*
X182084551Y-44304643D01*
X182318733Y-43740670D01*
X182319265Y-43130009D01*
X182319265Y-46628519D01*
X182297358Y-46606613D01*
X182063969Y-46509940D01*
X180473350Y-46509940D01*
X180314600Y-46668690D01*
X180314600Y-48768000D01*
X182413910Y-48768000D01*
X182572660Y-48609250D01*
X182572660Y-49180750D01*
X182413910Y-49022000D01*
X180314600Y-49022000D01*
X180314600Y-51121310D01*
X180473350Y-51280060D01*
X181139272Y-51280060D01*
X181077582Y-51305613D01*
X180898953Y-51484241D01*
X180802280Y-51717630D01*
X180802280Y-51970249D01*
X180802280Y-53308250D01*
X180961030Y-53467000D01*
X183060340Y-53467000D01*
X183060340Y-53721000D01*
X180961030Y-53721000D01*
X180802280Y-53879750D01*
X180802280Y-55217751D01*
X180802280Y-55470370D01*
X180898953Y-55703759D01*
X181077582Y-55882387D01*
X181310971Y-55979060D01*
X182901590Y-55979060D01*
X183060340Y-55820310D01*
X183060340Y-77737499D01*
X182945071Y-77622230D01*
X182826767Y-77335914D01*
X182507765Y-77016355D01*
X182090756Y-76843197D01*
X181639225Y-76842803D01*
X181221914Y-77015233D01*
X180902355Y-77334235D01*
X180895524Y-77350683D01*
X175724420Y-72179580D01*
X175394807Y-71959338D01*
X175330299Y-71946507D01*
X175006000Y-71882000D01*
X161163000Y-71882000D01*
X160647197Y-71882000D01*
X160647197Y-70062105D01*
X160474767Y-69644794D01*
X160155765Y-69325235D01*
X159738756Y-69152077D01*
X159287225Y-69151683D01*
X158998747Y-69270880D01*
X140303720Y-69270880D01*
X140003831Y-68970990D01*
X139885527Y-68684674D01*
X139566525Y-68365115D01*
X139149516Y-68191957D01*
X138697985Y-68191563D01*
X138280674Y-68363993D01*
X137961115Y-68682995D01*
X137787957Y-69100004D01*
X137787563Y-69551535D01*
X137959993Y-69968846D01*
X138278995Y-70288405D01*
X138567265Y-70408105D01*
X139164460Y-71005301D01*
X139494073Y-71225542D01*
X139494074Y-71225542D01*
X139882880Y-71302880D01*
X158999135Y-71302880D01*
X159285244Y-71421683D01*
X159736775Y-71422077D01*
X160154086Y-71249647D01*
X160473645Y-70930645D01*
X160646803Y-70513636D01*
X160647197Y-70062105D01*
X160647197Y-71882000D01*
X135686800Y-71882000D01*
X135409140Y-71882000D01*
X135193071Y-71665930D01*
X135074767Y-71379614D01*
X134755765Y-71060055D01*
X134344990Y-70889485D01*
X148526436Y-56708040D01*
X149629288Y-56708040D01*
X149638084Y-56729326D01*
X150090334Y-57182365D01*
X150681528Y-57427850D01*
X151321664Y-57428409D01*
X151913286Y-57183956D01*
X152366325Y-56731706D01*
X152611810Y-56140512D01*
X152612369Y-55500376D01*
X152367916Y-54908754D01*
X151915666Y-54455715D01*
X151324472Y-54210230D01*
X150684336Y-54209671D01*
X150092714Y-54454124D01*
X149639675Y-54906374D01*
X149629848Y-54930040D01*
X148158200Y-54930040D01*
X147817994Y-54997711D01*
X147529582Y-55190422D01*
X132953826Y-69766177D01*
X132946172Y-69771292D01*
X131217702Y-71499762D01*
X130697002Y-72020462D01*
X130286824Y-72430640D01*
X128048778Y-72430640D01*
X128048837Y-72363345D01*
X127876407Y-71946034D01*
X127754166Y-71823580D01*
X128473200Y-71823580D01*
X128789105Y-71760743D01*
X128789106Y-71760743D01*
X128809886Y-71746857D01*
X128809887Y-71746857D01*
X128904845Y-71727969D01*
X129193258Y-71535258D01*
X137321258Y-63407258D01*
X137331487Y-63391948D01*
X141049978Y-59673458D01*
X141242689Y-59385046D01*
X141310360Y-59044840D01*
X141310360Y-55653876D01*
X143005945Y-53958290D01*
X143272635Y-54225445D01*
X143689644Y-54398603D01*
X144078287Y-54398942D01*
X144147433Y-54566286D01*
X144466435Y-54885845D01*
X144883444Y-55059003D01*
X145334975Y-55059397D01*
X145752286Y-54886967D01*
X146071845Y-54567965D01*
X146245003Y-54150956D01*
X146245094Y-54046541D01*
X150107618Y-50184018D01*
X150300329Y-49895606D01*
X150300329Y-49895605D01*
X150368000Y-49555400D01*
X150368000Y-47327559D01*
X150749000Y-47403345D01*
X151322489Y-47289271D01*
X151808670Y-46964415D01*
X152019000Y-46649634D01*
X152229330Y-46964415D01*
X152715511Y-47289271D01*
X153289000Y-47403345D01*
X153862489Y-47289271D01*
X154348670Y-46964415D01*
X154559000Y-46649634D01*
X154769330Y-46964415D01*
X155255511Y-47289271D01*
X155829000Y-47403345D01*
X156402489Y-47289271D01*
X156888670Y-46964415D01*
X157099000Y-46649634D01*
X157309330Y-46964415D01*
X157795511Y-47289271D01*
X158369000Y-47403345D01*
X158942489Y-47289271D01*
X159428670Y-46964415D01*
X159639000Y-46649634D01*
X159849330Y-46964415D01*
X160335511Y-47289271D01*
X160909000Y-47403345D01*
X161482489Y-47289271D01*
X161968670Y-46964415D01*
X162179000Y-46649634D01*
X162389330Y-46964415D01*
X162875511Y-47289271D01*
X163449000Y-47403345D01*
X164022489Y-47289271D01*
X164508670Y-46964415D01*
X164519215Y-46948632D01*
X164524937Y-46978123D01*
X164664727Y-47190927D01*
X164875760Y-47333377D01*
X165125400Y-47383440D01*
X166852600Y-47383440D01*
X167094723Y-47336463D01*
X167307527Y-47196673D01*
X167449977Y-46985640D01*
X167500040Y-46736000D01*
X167500040Y-44704000D01*
X167453063Y-44461877D01*
X167313273Y-44249073D01*
X167102240Y-44106623D01*
X166852600Y-44056560D01*
X165125400Y-44056560D01*
X164883277Y-44103537D01*
X164670473Y-44243327D01*
X164528023Y-44454360D01*
X164520281Y-44492962D01*
X164508670Y-44475585D01*
X164022489Y-44150729D01*
X163449000Y-44036655D01*
X162875511Y-44150729D01*
X162389330Y-44475585D01*
X162179000Y-44790365D01*
X161968670Y-44475585D01*
X161482489Y-44150729D01*
X160909000Y-44036655D01*
X160335511Y-44150729D01*
X159849330Y-44475585D01*
X159639000Y-44790365D01*
X159428670Y-44475585D01*
X158942489Y-44150729D01*
X158369000Y-44036655D01*
X157795511Y-44150729D01*
X157309330Y-44475585D01*
X157099000Y-44790365D01*
X156888670Y-44475585D01*
X156402489Y-44150729D01*
X155829000Y-44036655D01*
X155255511Y-44150729D01*
X154769330Y-44475585D01*
X154559000Y-44790365D01*
X154348670Y-44475585D01*
X153862489Y-44150729D01*
X153289000Y-44036655D01*
X152715511Y-44150729D01*
X152229330Y-44475585D01*
X152019000Y-44790365D01*
X151808670Y-44475585D01*
X151322489Y-44150729D01*
X150749000Y-44036655D01*
X150316919Y-44122601D01*
X150368000Y-43865800D01*
X150300329Y-43525595D01*
X150107618Y-43237182D01*
X148580436Y-41710000D01*
X186286322Y-41710000D01*
X186286322Y-43808650D01*
X190290000Y-43808650D01*
X190290000Y-91290000D01*
M02*
