M48
;DRILL file {kicad (2015-01-16 BZR 5376)-product} date 7/24/2015 3:20:16 PM
;FORMAT={-:-/ absolute / metric / decimal}
FMAT,2
METRIC,TZ
T1C0.550
T2C0.599
T3C0.800
T4C0.998
T5C1.000
T6C1.001
T7C1.016
T8C1.200
T9C1.298
%
G90
G05
M71
T1
X64.706Y-42.685
X67.678Y-42.837
X75.819Y-44.094
X76.225Y-42.901
X79.248Y-71.158
X79.807Y-89.764
X80.467Y-59.792
X81.94Y-51.791
X85.039Y-59.863
X90.876Y-51.572
X91.171Y-63.033
X91.58Y-83.909
X92.461Y-77.297
X92.568Y-52.608
X92.977Y-69.977
X94.31Y-90.907
X97.094Y-57.277
X97.333Y-71.031
X98.704Y-68.047
X98.92Y-69.482
X99.624Y-59.781
X99.987Y-57.315
X100.178Y-51.448
X101.249Y-61.402
X101.346Y-55.88
X102.413Y-60.427
X103.429Y-52.548
X104.699Y-52.695
X105.664Y-66.802
X105.918Y-74.384
X106.045Y-68.072
X106.045Y-69.469
X106.045Y-70.739
X106.121Y-52.781
X106.769Y-78.308
X106.947Y-75.057
X108.001Y-51.811
X108.191Y-75.819
X108.509Y-77.241
X108.585Y-60.427
X109.411Y-53.721
X109.977Y-77.627
X110.007Y-75.527
X110.401Y-60.173
X110.617Y-54.292
X111.887Y-76.378
X112.763Y-60.261
X114.11Y-50.863
X114.417Y-63.901
X114.617Y-69.278
X114.62Y-65.105
X114.744Y-81.737
X115.634Y-75.882
X115.697Y-68.516
X116.108Y-81.356
X116.141Y-50.673
X116.332Y-69.596
X116.649Y-49.466
X116.777Y-67.882
X117.03Y-51.689
X117.729Y-69.532
X118.633Y-81.3
X118.745Y-76.926
X119.19Y-61.658
X120.051Y-77.089
X120.231Y-69.507
X120.929Y-79.985
X121.285Y-57.404
X122.047Y-64.643
X122.11Y-66.04
X122.555Y-67.437
X122.809Y-62.357
X122.936Y-73.596
X125.603Y-72.39
X126.086Y-79.108
X126.141Y-57.836
X126.259Y-65.528
X126.914Y-72.588
X127.102Y-82.156
X127.478Y-70.028
X127.876Y-49.784
X128.575Y-82.347
X128.803Y-54.188
X129.032Y-64.389
X129.286Y-66.294
X129.286Y-67.691
X129.731Y-78.638
X129.794Y-56.134
X129.88Y-51.811
X130.028Y-70.764
X130.175Y-63.881
X130.713Y-62.144
X131.623Y-84.79
X132.588Y-83.337
X133.213Y-84.43
X134.112Y-72.022
X134.302Y-47.816
X135.445Y-52.07
X137.145Y-65.212
X138.623Y-57.089
X138.923Y-69.327
X143.916Y-53.264
X144.399Y-47.942
X145.11Y-53.924
X158.699Y-71.806
X159.512Y-70.287
X160.973Y-55.499
X168.148Y-61.722
X169.774Y-87.325
X175.641Y-77.724
X177.419Y-83.502
X180.492Y-90.17
X180.594Y-86.741
X181.864Y-77.978
X184.15Y-67.564
X184.721Y-90.043
T2
X120.155Y-55.88
X121.653Y-55.88
T3
X174.784Y-43.434
X176.784Y-43.434
X178.784Y-43.434
T4
X67.98Y-54.57
X67.98Y-57.11
X67.98Y-59.65
X67.98Y-62.19
X67.98Y-64.73
X67.98Y-67.27
X67.98Y-69.81
X67.98Y-72.35
X67.98Y-74.89
X67.98Y-77.43
X70.52Y-54.57
X70.52Y-57.11
X70.52Y-59.65
X70.52Y-62.19
X70.52Y-64.73
X70.52Y-67.27
X70.52Y-69.81
X70.52Y-72.35
X70.52Y-74.89
X70.52Y-77.43
T5
X186.Y-79.309
X186.Y-84.309
T7
X66.929Y-45.72
X66.929Y-86.36
X69.469Y-45.72
X69.469Y-86.36
X72.009Y-45.72
X72.009Y-86.36
X74.549Y-45.72
X74.549Y-86.36
X77.089Y-45.72
X77.089Y-86.36
X79.629Y-45.72
X79.629Y-86.36
X82.169Y-45.72
X82.169Y-86.36
X84.709Y-45.72
X84.709Y-86.36
X87.249Y-45.72
X87.249Y-86.36
X89.789Y-45.72
X89.789Y-86.36
X92.329Y-45.72
X92.329Y-86.36
X94.869Y-45.72
X94.869Y-86.36
X97.409Y-45.72
X97.409Y-86.36
X99.949Y-45.72
X99.949Y-86.36
X102.489Y-45.72
X102.489Y-86.36
X105.029Y-45.72
X105.029Y-86.36
X107.569Y-45.72
X107.569Y-86.36
X110.109Y-45.72
X110.109Y-86.36
X112.649Y-45.72
X112.649Y-86.36
X115.189Y-45.72
X115.189Y-86.36
X117.729Y-45.72
X117.729Y-86.36
X120.269Y-45.72
X120.269Y-86.36
X122.809Y-45.72
X122.809Y-86.36
X125.349Y-45.72
X125.349Y-86.36
X127.889Y-45.72
X127.889Y-86.36
X130.429Y-45.72
X130.429Y-86.36
X131.826Y-77.216
X131.826Y-79.756
X132.969Y-45.72
X132.969Y-86.36
X134.366Y-77.216
X134.366Y-79.756
X135.509Y-45.72
X135.509Y-86.36
X136.906Y-77.216
X136.906Y-79.756
X138.049Y-45.72
X138.049Y-86.36
X139.446Y-77.216
X139.446Y-79.756
X140.589Y-45.72
X140.589Y-86.36
X143.129Y-45.72
X143.129Y-86.36
X145.669Y-45.72
X145.669Y-86.36
X148.209Y-45.72
X148.209Y-86.36
X150.749Y-45.72
X150.749Y-86.36
X153.289Y-45.72
X153.289Y-86.36
X155.829Y-45.72
X155.829Y-86.36
X158.369Y-45.72
X158.369Y-86.36
X160.909Y-45.72
X160.909Y-86.36
X163.449Y-45.72
X163.449Y-86.36
X165.989Y-45.72
X165.989Y-86.36
T8
X172.784Y-43.434
X180.784Y-43.434
T9
X151.003Y-55.819
X151.003Y-75.819
T6
X177.188Y-54.593G85X177.188Y-52.595
G05
X181.187Y-48.895G85X179.188Y-48.895
G05
X183.187Y-54.593G85X183.187Y-52.595
G05
T0
M30
