G04 #@! TF.FileFunction,Soldermask,Bot*
%FSLAX46Y46*%
G04 Gerber Fmt 4.6, Leading zero omitted, Abs format (unit mm)*
G04 Created by KiCad (PCBNEW (2015-01-16 BZR 5376)-product) date 7/24/2015 3:20:05 PM*
%MOMM*%
G01*
G04 APERTURE LIST*
%ADD10C,0.100000*%
%ADD11C,0.190500*%
%ADD12C,0.150000*%
%ADD13C,1.400760*%
%ADD14R,2.000000X2.400000*%
%ADD15C,2.348180*%
%ADD16R,1.150000X1.600000*%
%ADD17R,3.900120X3.900120*%
%ADD18R,2.127200X2.432000*%
%ADD19O,2.127200X2.432000*%
%ADD20C,1.906220*%
%ADD21R,2.127200X2.127200*%
%ADD22O,2.127200X2.127200*%
%ADD23C,2.000000*%
%ADD24C,2.200000*%
%ADD25O,1.600000X1.650000*%
G04 APERTURE END LIST*
D10*
D11*
X190155285Y-42490571D02*
X190046428Y-42526857D01*
X190010143Y-42563143D01*
X189973857Y-42635714D01*
X189973857Y-42744571D01*
X190010143Y-42817143D01*
X190046428Y-42853429D01*
X190119000Y-42889714D01*
X190409285Y-42889714D01*
X190409285Y-42127714D01*
X190155285Y-42127714D01*
X190082714Y-42164000D01*
X190046428Y-42200286D01*
X190010143Y-42272857D01*
X190010143Y-42345429D01*
X190046428Y-42418000D01*
X190082714Y-42454286D01*
X190155285Y-42490571D01*
X190409285Y-42490571D01*
X189647285Y-42599429D02*
X189066714Y-42599429D01*
X188703856Y-42889714D02*
X188703856Y-42127714D01*
X188449856Y-42672000D01*
X188195856Y-42127714D01*
X188195856Y-42889714D01*
X187506428Y-42889714D02*
X187506428Y-42490571D01*
X187542714Y-42418000D01*
X187615285Y-42381714D01*
X187760428Y-42381714D01*
X187832999Y-42418000D01*
X187506428Y-42853429D02*
X187578999Y-42889714D01*
X187760428Y-42889714D01*
X187832999Y-42853429D01*
X187869285Y-42780857D01*
X187869285Y-42708286D01*
X187832999Y-42635714D01*
X187760428Y-42599429D01*
X187578999Y-42599429D01*
X187506428Y-42563143D01*
X187179856Y-42853429D02*
X187107285Y-42889714D01*
X186962142Y-42889714D01*
X186889570Y-42853429D01*
X186853285Y-42780857D01*
X186853285Y-42744571D01*
X186889570Y-42672000D01*
X186962142Y-42635714D01*
X187070999Y-42635714D01*
X187143570Y-42599429D01*
X187179856Y-42526857D01*
X187179856Y-42490571D01*
X187143570Y-42418000D01*
X187070999Y-42381714D01*
X186962142Y-42381714D01*
X186889570Y-42418000D01*
X186526713Y-42889714D02*
X186526713Y-42127714D01*
X186454142Y-42599429D02*
X186236428Y-42889714D01*
X186236428Y-42381714D02*
X186526713Y-42672000D01*
D12*
X64000000Y-92000000D02*
X191000000Y-92000000D01*
X59000000Y-46000000D02*
X59000000Y-87000000D01*
X64000000Y-41000000D02*
X191000000Y-41000000D01*
X59000000Y-87000000D02*
G75*
G03X64000000Y-92000000I5000000J0D01*
G01*
X64000000Y-41000000D02*
G75*
G03X59000000Y-46000000I0J-5000000D01*
G01*
X191000000Y-41000000D02*
X191000000Y-92000000D01*
D13*
X121653300Y-55880000D03*
X120154700Y-55880000D03*
D14*
X120904000Y-52630000D03*
D15*
X151003000Y-55819040D03*
X151003000Y-75819000D03*
D16*
X123190000Y-53274000D03*
X123190000Y-51374000D03*
X118618000Y-53274000D03*
X118618000Y-51374000D03*
D17*
X177187860Y-53594000D03*
X183187340Y-53594000D03*
X180187600Y-48895000D03*
D18*
X165989000Y-86360000D03*
D19*
X163449000Y-86360000D03*
X160909000Y-86360000D03*
X158369000Y-86360000D03*
X155829000Y-86360000D03*
X153289000Y-86360000D03*
X150749000Y-86360000D03*
X148209000Y-86360000D03*
X145669000Y-86360000D03*
X143129000Y-86360000D03*
X140589000Y-86360000D03*
X138049000Y-86360000D03*
X135509000Y-86360000D03*
X132969000Y-86360000D03*
X130429000Y-86360000D03*
X127889000Y-86360000D03*
X125349000Y-86360000D03*
X122809000Y-86360000D03*
X120269000Y-86360000D03*
X117729000Y-86360000D03*
X115189000Y-86360000D03*
X112649000Y-86360000D03*
X110109000Y-86360000D03*
X107569000Y-86360000D03*
X105029000Y-86360000D03*
X102489000Y-86360000D03*
X99949000Y-86360000D03*
X97409000Y-86360000D03*
X94869000Y-86360000D03*
X92329000Y-86360000D03*
X89789000Y-86360000D03*
X87249000Y-86360000D03*
X84709000Y-86360000D03*
X82169000Y-86360000D03*
X79629000Y-86360000D03*
X77089000Y-86360000D03*
X74549000Y-86360000D03*
X72009000Y-86360000D03*
X69469000Y-86360000D03*
X66929000Y-86360000D03*
D20*
X70520000Y-77430000D03*
X67980000Y-77430000D03*
X70520000Y-74890000D03*
X67980000Y-74890000D03*
X70520000Y-72350000D03*
X67980000Y-72350000D03*
X70520000Y-69810000D03*
X67980000Y-69810000D03*
X70520000Y-67270000D03*
X67980000Y-67270000D03*
X70520000Y-64730000D03*
X67980000Y-64730000D03*
X70520000Y-62190000D03*
X67980000Y-62190000D03*
X70520000Y-59650000D03*
X67980000Y-59650000D03*
X70520000Y-57110000D03*
X67980000Y-57110000D03*
X70520000Y-54570000D03*
X67980000Y-54570000D03*
D18*
X165989000Y-45720000D03*
D19*
X163449000Y-45720000D03*
X160909000Y-45720000D03*
X158369000Y-45720000D03*
X155829000Y-45720000D03*
X153289000Y-45720000D03*
X150749000Y-45720000D03*
X148209000Y-45720000D03*
X145669000Y-45720000D03*
X143129000Y-45720000D03*
X140589000Y-45720000D03*
X138049000Y-45720000D03*
X135509000Y-45720000D03*
X132969000Y-45720000D03*
X130429000Y-45720000D03*
X127889000Y-45720000D03*
X125349000Y-45720000D03*
X122809000Y-45720000D03*
X120269000Y-45720000D03*
X117729000Y-45720000D03*
X115189000Y-45720000D03*
X112649000Y-45720000D03*
X110109000Y-45720000D03*
X107569000Y-45720000D03*
X105029000Y-45720000D03*
X102489000Y-45720000D03*
X99949000Y-45720000D03*
X97409000Y-45720000D03*
X94869000Y-45720000D03*
X92329000Y-45720000D03*
X89789000Y-45720000D03*
X87249000Y-45720000D03*
X84709000Y-45720000D03*
X82169000Y-45720000D03*
X79629000Y-45720000D03*
X77089000Y-45720000D03*
X74549000Y-45720000D03*
X72009000Y-45720000D03*
X69469000Y-45720000D03*
X66929000Y-45720000D03*
D21*
X139446000Y-77216000D03*
D22*
X139446000Y-79756000D03*
X136906000Y-77216000D03*
X136906000Y-79756000D03*
X134366000Y-77216000D03*
X134366000Y-79756000D03*
X131826000Y-77216000D03*
X131826000Y-79756000D03*
D23*
X178784000Y-43434000D03*
X176784000Y-43434000D03*
X174784000Y-43434000D03*
D24*
X172784000Y-43434000D03*
X180784000Y-43434000D03*
D25*
X186000000Y-84308800D03*
X186000000Y-79308800D03*
M02*
